<?xml version="1.0" encoding="UTF-8"?>
<svg version="1.1" xmlns="http://www.w3.org/2000/svg" width="459" height="459">
<path d="M0 0 C151.47 0 302.94 0 459 0 C459 151.47 459 302.94 459 459 C307.53 459 156.06 459 0 459 C0 307.53 0 156.06 0 0 Z " fill="#FBFCFC" transform="translate(0,0)"/>
<path d="M0 0 C1.15218018 0.37318359 1.15218018 0.37318359 2.32763672 0.75390625 C44.72531416 14.74294304 78.59621505 44.45847993 99.05517578 84.04150391 C102.39562181 90.67884597 105.43500338 97.33719168 107.296875 104.55859375 C107.91151035 106.69274426 108.63773716 108.6904745 109.44140625 110.7578125 C122.10394453 144.30849255 117.39064829 189.2367987 103.18164062 221.42480469 C95.49159828 238.18401268 86.64038764 253.3010425 74.01953125 266.828125 C72.24915862 268.73204605 70.58614232 270.67891151 68.9375 272.6875 C44.99997968 300.65797211 4.62220374 317.55953135 -31.3125 321.75 C-78.49303037 324.75372942 -122.08168983 311.74309059 -157.92578125 280.4453125 C-187.82972118 253.83696729 -209.82297662 215.1585363 -212.85498047 174.69726562 C-213.79974789 157.12522773 -214.08181281 139.20350998 -210 122 C-209.80664062 121.17419434 -209.61328125 120.34838867 -209.4140625 119.49755859 C-202.44846671 90.75910128 -188.32286302 65.43734261 -168 44 C-167.11828125 43.05382812 -166.2365625 42.10765625 -165.328125 41.1328125 C-123.88835535 -2.44523215 -56.98392372 -18.67283625 0 0 Z " fill="#03294B" transform="translate(278,72)"/>
<path d="M0 0 C71.61 0 143.22 0 217 0 C217 151.47 217 302.94 217 459 C65.53 459 -85.94 459 -242 459 C-242 389.04 -242 319.08 -242 247 C-241.67 247 -241.34 247 -241 247 C-240.93530518 247.61705811 -240.87061035 248.23411621 -240.80395508 248.86987305 C-236.28347906 290.85791686 -222.25578608 330.85575739 -197 365 C-196.56606934 365.59087402 -196.13213867 366.18174805 -195.68505859 366.79052734 C-165.48475722 407.55355165 -122.46608357 435.75805166 -74 450 C-73.25991699 450.22123535 -72.51983398 450.4424707 -71.75732422 450.67041016 C-52.49975218 456.31923657 -32.52688927 457.61134808 -12.5625 457.5625 C-11.00965805 457.56426743 -11.00965805 457.56426743 -9.42544556 457.56607056 C8.68428857 457.5415361 25.48717481 455.65119908 43 451 C43.96333252 450.75032471 44.92666504 450.50064941 45.91918945 450.2434082 C95.07064624 437.22782546 141.39165726 407.8543797 171 366 C171.48130371 365.32001953 171.96260742 364.64003906 172.45849609 363.93945312 C183.72386071 347.84917296 192.93962336 331.23630943 200.20410156 312.98681641 C200.86336331 311.34108876 201.54934828 309.70609478 202.2421875 308.07421875 C206.29971675 298.46510879 208.77601921 288.32520659 211.125 278.1875 C211.36283203 277.19556641 211.36283203 277.19556641 211.60546875 276.18359375 C215.1016337 260.55367985 215.44235116 244.69543486 215.4375 228.75 C215.43823517 227.69507355 215.43897034 226.64014709 215.43972778 225.55325317 C215.40806498 208.20646641 214.30303061 191.87657732 210 175 C209.61448975 173.47463623 209.61448975 173.47463623 209.22119141 171.91845703 C197.22796383 126.08798334 170.17433151 82.56722892 133 53 C131.91467664 52.1128201 130.83006217 51.22477238 129.74609375 50.3359375 C107.49745422 32.25110473 82.12704222 19.95440986 55 11 C53.75863281 10.57074219 52.51726562 10.14148437 51.23828125 9.69921875 C34.62436049 4.18960867 17.37800572 2.22633087 0 1 C0 0.67 0 0.34 0 0 Z " fill="#FDFDFE" transform="translate(242,0)"/>
<path d="M0 0 C30.33572092 -0.06873555 60.67143364 -0.12168147 91.00721486 -0.15319599 C94.60498907 -0.15694721 98.20276313 -0.16083026 101.80053711 -0.16479492 C102.51665888 -0.16558185 103.23278065 -0.16636878 103.97060309 -0.16717956 C115.5002522 -0.18016216 127.02985552 -0.20377563 138.55947765 -0.23145839 C150.42813507 -0.25971322 162.29676884 -0.27621818 174.1654585 -0.28226548 C180.81581425 -0.2859791 187.46608718 -0.29514203 194.11641502 -0.31719017 C265.62002713 -0.54459329 265.62002713 -0.54459329 300 11 C301.25611084 11.41958984 301.25611084 11.41958984 302.53759766 11.84765625 C327.18100515 20.17782216 349.57057665 31.86247231 370 48 C371.34964844 49.05960938 371.34964844 49.05960938 372.7265625 50.140625 C414.4602483 83.57568163 444.38900562 131.00295087 454.56100464 183.74134827 C454.83705484 185.1616395 455.11929737 186.5807553 455.41043091 187.99803162 C457.91649675 200.26001184 458.46805464 212.21510599 458.39111328 224.7121582 C458.37507124 227.79879298 458.3910351 230.88410838 458.41015625 233.97070312 C458.43004465 252.90446043 455.98860307 270.74624785 451 289 C450.67386367 290.29867485 450.35095718 291.59816499 450.03125 292.8984375 C447.99943043 300.97655885 445.4110645 308.41212183 442 316 C441.34243304 317.53068492 440.6862974 319.06198516 440.03125 320.59375 C424.27043131 357.04019971 398.64779291 390.98811096 366 414 C364.98220459 414.71978027 364.98220459 414.71978027 363.94384766 415.45410156 C346.22125813 427.86349616 328.15558491 437.2823062 307.89599609 444.90795898 C306.05340382 445.60277564 304.21688339 446.31408146 302.38916016 447.04711914 C294.9257721 449.95485063 287.27907163 451.64160961 279.45556641 453.23754883 C277.23813378 453.68992079 275.02327367 454.15349624 272.80859375 454.61914062 C262.97255432 456.66883128 253.64126962 458.15791177 243.58984375 458.203125 C242.58651505 458.20882507 241.58318634 458.21452515 240.54945374 458.22039795 C238.4238489 458.22982071 236.29822963 458.23637107 234.17260742 458.24023438 C230.99955723 458.24981267 227.8271918 458.28080819 224.65429688 458.3125 C206.39529278 458.40896239 188.55735155 456.84195473 170.9375 451.8125 C169.31400635 451.35967651 169.31400635 451.35967651 167.65771484 450.89770508 C136.89851057 442.08903852 108.56447487 427.55076448 84 407 C83.40316406 406.50467773 82.80632812 406.00935547 82.19140625 405.49902344 C52.32290194 380.63491441 31.83649325 350.30797106 16 315 C15.65710937 314.23623047 15.31421875 313.47246094 14.9609375 312.68554688 C11.12654678 303.9199915 8.7221502 294.73615531 6.3125 285.5 C6.02648926 284.42758057 5.74047852 283.35516113 5.44580078 282.25024414 C0.47836688 262.2974752 -0.44239468 242.07119725 -0.34057617 221.6015625 C-0.33972724 219.16455598 -0.34021022 216.72754869 -0.34190369 214.2905426 C-0.34266697 208.4303056 -0.32984052 202.57021943 -0.31059071 196.71001667 C-0.28890671 189.87564841 -0.28463477 183.04129973 -0.2812262 176.20690191 C-0.27470177 164.02445918 -0.25485108 151.8420776 -0.22631836 139.65966797 C-0.19867285 127.84359029 -0.17749104 116.02752938 -0.16479492 104.21142578 C-0.16400675 103.47994324 -0.16321858 102.74846069 -0.16240653 101.99481201 C-0.15849069 98.32424174 -0.15469974 94.65367136 -0.15097082 90.98310089 C-0.12000013 60.65535687 -0.06704851 30.32768702 0 0 Z M194 12 C192.89084229 12.16943115 192.89084229 12.16943115 191.75927734 12.34228516 C146.37004477 19.70829792 107.00941722 42.89759175 74 74 C73.21753906 74.72832031 72.43507812 75.45664063 71.62890625 76.20703125 C65.01459247 82.56196018 59.51959544 89.70330215 54 97 C53.28714844 97.92941406 52.57429688 98.85882813 51.83984375 99.81640625 C23.90114324 137.08652164 9.79341079 183.05249252 9.75 229.375 C9.74899292 230.12500275 9.74798584 230.87500549 9.74694824 231.6477356 C9.75738025 243.17924584 10.35485499 254.35162317 12.55566406 265.70117188 C12.99778601 267.98854564 13.38790341 270.2806165 13.7734375 272.578125 C20.64176246 311.13002889 40.03399044 348.13894849 66.76953125 376.6171875 C68.75288924 378.73601127 70.6323994 380.90477551 72.5 383.125 C76.62831321 387.8458026 81.23135645 391.93734675 86 396 C86.53093262 396.45391113 87.06186523 396.90782227 87.60888672 397.37548828 C114.84413927 420.46403476 146.57826338 435.18881813 181 444 C182.269646 444.3410376 182.269646 444.3410376 183.56494141 444.68896484 C197.96577829 448.41593695 212.53655396 448.36224619 227.3125 448.375 C228.78967499 448.37812698 228.78967499 448.37812698 230.29669189 448.38131714 C247.24094133 448.37726121 263.81227422 447.47998149 280.3125 443.375 C281.36808105 443.11485107 282.42366211 442.85470215 283.51123047 442.58666992 C330.49835985 430.54873254 374.912131 401.91591735 403.74853516 362.70019531 C404.99732441 361.00363496 406.26887103 359.32604025 407.54296875 357.6484375 C426.41041181 332.43235482 438.55534101 302.65749147 445 272 C445.23589844 270.88367188 445.47179687 269.76734375 445.71484375 268.6171875 C447.58180756 259.0507014 448.15409048 249.40233744 448.23828125 239.671875 C448.25304001 238.25652969 448.25304001 238.25652969 448.26809692 236.81259155 C448.68887908 208.64859919 448.68887908 208.64859919 444 181 C443.7426709 180.00967773 443.4853418 179.01935547 443.22021484 177.99902344 C439.97128635 165.66946352 436.17800958 153.66333841 431 142 C430.71576172 141.34547852 430.43152344 140.69095703 430.13867188 140.01660156 C420.68591555 118.36509383 407.6714697 98.77374507 391.453125 81.60546875 C389.36972845 79.39268929 387.39252399 77.13751684 385.4375 74.8125 C363.79365306 50.07667493 332.34318452 33.35275985 302 22 C300.783125 21.52691406 299.56625 21.05382813 298.3125 20.56640625 C286.25356197 16.16763454 273.61115884 14.17187512 261 12 C260.26201172 11.86432617 259.52402344 11.72865234 258.76367188 11.58886719 C238.10350716 7.82765771 214.6932304 8.80846196 194 12 Z " fill="#09254E" transform="translate(0,0)"/>
<path d="M0 0 C69.96 0 139.92 0 212 0 C212 0.33 212 0.66 212 1 C211.33170166 1.06993164 210.66340332 1.13986328 209.97485352 1.21191406 C161.60651375 6.37363789 117.03845806 24.00158528 80 56 C79.1853125 56.70382813 78.370625 57.40765625 77.53125 58.1328125 C39.93966704 91.32284935 15.32577939 135.06010812 5 184 C4.84015625 184.75361816 4.6803125 185.50723633 4.515625 186.28369141 C2.73673018 194.81586906 1.4784174 203.28950385 1 212 C0.67 212 0.34 212 0 212 C0 142.04 0 72.08 0 0 Z " fill="#FEFEFE" transform="translate(0,0)"/>
<path d="M0 0 C7.32207521 6.78799443 11.58206935 16.5885778 13.25 26.3125 C13.02804202 28.44590786 12.73561403 30.57310837 12.375 32.6875 C11.35422759 40.51024187 15.34407028 45.21404073 19.83203125 51.1953125 C20.62996094 52.22398437 21.42789063 53.25265625 22.25 54.3125 C24.25 57.3125 24.25 57.3125 24.375 59.8125 C23.25 62.3125 23.25 62.3125 21.39453125 63.30078125 C19.36270368 64.05956995 17.33802572 64.72747229 15.25 65.3125 C15.27320313 65.93898438 15.29640625 66.56546875 15.3203125 67.2109375 C15.33835937 68.02820313 15.35640625 68.84546875 15.375 69.6875 C15.39820313 70.49960937 15.42140625 71.31171875 15.4453125 72.1484375 C15.25 74.3125 15.25 74.3125 13.25 76.3125 C13.415 76.951875 13.58 77.59125 13.75 78.25 C13.915 78.930625 14.08 79.61125 14.25 80.3125 C13.59 81.3025 12.93 82.2925 12.25 83.3125 C12.19632519 85.89295319 12.19632519 85.89295319 12.4375 88.6875 C12.55496484 93.91123048 12.55496484 93.91123048 9.875 97.4375 C6.5751547 99.79453236 5.01125417 100.42786196 1.0390625 100.453125 C0.20632812 100.47246094 -0.62640625 100.49179687 -1.484375 100.51171875 C-3.23674996 100.54541827 -4.98949049 100.56379028 -6.7421875 100.56640625 C-12.06836151 100.66390487 -12.06836151 100.66390487 -16.2890625 103.734375 C-17.14322948 105.24172849 -17.97518186 106.76286372 -18.75 108.3125 C-19.43320313 108.15265625 -20.11640625 107.9928125 -20.8203125 107.828125 C-28.94031101 106.39900526 -37.51102696 106.06353756 -44.75 110.3125 C-46.09631825 111.29494845 -47.43441297 112.28926564 -48.75 113.3125 C-49.41 113.3125 -50.07 113.3125 -50.75 113.3125 C-51.03230469 113.90160156 -51.31460938 114.49070312 -51.60546875 115.09765625 C-56.34619578 124.27169116 -64.44502884 131.20261709 -71.75 138.3125 C-79.51537014 130.6000455 -85.98969126 122.66365056 -91.75 113.3125 C-91.75 112.9825 -91.75 112.6525 -91.75 112.3125 C-90.85796875 112.29832031 -89.9659375 112.28414063 -89.046875 112.26953125 C-87.29117188 112.19798828 -87.29117188 112.19798828 -85.5 112.125 C-83.75976562 112.07279297 -83.75976562 112.07279297 -81.984375 112.01953125 C-78.61789957 111.58646329 -78.61789957 111.58646329 -76.46484375 109.046875 C-74.95705728 106.64265967 -73.67324092 104.35684094 -72.5625 101.75 C-72.23894531 101.00621094 -71.91539063 100.26242187 -71.58203125 99.49609375 C-68.66914445 91.85147535 -68.18240555 81.98281229 -71.5 74.390625 C-73.84648075 70.48960076 -76.7926405 67.00593379 -79.58984375 63.421875 C-82.66123262 59.00085232 -84.26994752 54.44863448 -85.75 49.3125 C-86.245 47.8275 -86.245 47.8275 -86.75 46.3125 C-87.63119558 29.4850536 -85.52001115 16.64368607 -73.875 3.6875 C-54.46417896 -14.80368823 -21.12756476 -16.40166211 0 0 Z " fill="#E4771D" transform="translate(193.75,192.6875)"/>
<path d="M0 0 C2.5625 2.3125 2.5625 2.3125 4 4 C2.9275 3.67 1.855 3.34 0.75 3 C-8.16139553 0.84300144 -15.85041052 1.03697729 -23.8828125 5.65625 C-24.58148438 6.0996875 -25.28015625 6.543125 -26 7 C-26.928125 7.5775 -27.85625 8.155 -28.8125 8.75 C-33.50071351 13.57216246 -36.28991319 18.57006505 -36.5625 25.375 C-36.33626912 30.55641699 -34.86695113 34.92895008 -32.875 39.6875 C-32 42 -32 42 -32 45 C-25.11585618 45.04622419 -25.11585618 45.04622419 -19.5625 41.5625 C-18.7890625 40.2940625 -18.7890625 40.2940625 -18 39 C-14.30378364 36.53585576 -11.28819801 36.19899698 -7 37 C-3.97603976 38.62878545 -1.64692609 40.65993882 -0.125 43.8125 C-0.08375 44.534375 -0.0425 45.25625 0 46 C0.0825 47.27875 0.165 48.5575 0.25 49.875 C0.15695805 55.4471793 -1.90717741 58.83093397 -5.6875 62.875 C-6.450625 63.57625 -7.21375 64.2775 -8 65 C-6.36193031 70.06312448 -3.69961886 74.5585054 1.0703125 77.10546875 C2.14925781 77.64107422 2.14925781 77.64107422 3.25 78.1875 C5.34765625 79.41796875 5.34765625 79.41796875 7 81 C7.64852092 83.67118058 7.68909793 86.11712842 7.7265625 88.86328125 C8.22660868 94.59952527 10.73992646 99.75429425 13 105 C12.05640625 105.23074219 11.1128125 105.46148437 10.140625 105.69921875 C-7.81943526 110.20335336 -22.93580721 117.66003514 -36.36328125 130.6015625 C-38 132 -38 132 -40 132 C-40.176521 131.13721436 -40.35304199 130.27442871 -40.53491211 129.38549805 C-41.19132344 126.18158046 -41.84937706 122.97800932 -42.50854492 119.7746582 C-42.79338331 118.38872571 -43.07756832 117.00265876 -43.36108398 115.61645508 C-43.76894774 113.62285135 -44.1791664 111.62974453 -44.58984375 109.63671875 C-44.95903931 107.83787231 -44.95903931 107.83787231 -45.33569336 106.00268555 C-45.9517673 102.9716436 -45.9517673 102.9716436 -47 100 C-47.96824707 99.98598145 -47.96824707 99.98598145 -48.95605469 99.97167969 C-51.88813944 99.91790899 -54.81864008 99.8342766 -57.75 99.75 C-59.27367187 99.72873047 -59.27367187 99.72873047 -60.828125 99.70703125 C-68.25026151 99.46288202 -68.25026151 99.46288202 -71.6953125 97.3359375 C-73.38750354 94.30620623 -73.33669003 92.32131376 -73.125 88.875 C-72.90934834 85.766967 -72.90934834 85.766967 -73 83 C-73.66 82.34 -74.32 81.68 -75 81 C-75.04443347 79.00049364 -75.03920815 76.99961564 -75 75 C-75.28604898 73.32457024 -75.61781233 71.65614657 -76 70 C-76.5 67.5 -76.5 67.5 -77 65 C-79.31 64.34 -81.62 63.68 -84 63 C-84.765625 60.9375 -84.765625 60.9375 -85 58 C-83.67795648 55.47290797 -82.37540057 53.31211996 -80.75 51 C-79.93177283 49.79201794 -79.11405501 48.58369069 -78.296875 47.375 C-76.94691634 45.38332587 -75.58231883 43.40783298 -74.1953125 41.44140625 C-72.68470054 38.35600601 -72.86330713 36.3437281 -73.125 32.9375 C-73.31239164 26.59501366 -71.85708767 22.21576003 -69.09375 16.55859375 C-67.70227565 13.30353768 -67.75287398 10.90236301 -68.68359375 7.50390625 C-69 5 -69 5 -67.84765625 2.90234375 C-51.45582242 -15.13943397 -19.04060694 -13.00834569 0 0 Z " fill="#E5751D" transform="translate(341,196)"/>
<path d="M0 0 C3.05384173 1.66573185 5.45917091 3.81750376 8.0625 6.125 C6.19293478 10.93245342 6.19293478 10.93245342 4.75 13.0625 C3.80692513 15.29003912 3.80692513 15.29003912 4.8125 18.3125 C6.74106555 21.30644251 6.74106555 21.30644251 9.49609375 21.73046875 C12.00964552 21.97647594 14.53778977 22.05942311 17.0625 22.125 C17.0625 25.755 17.0625 29.385 17.0625 33.125 C14.0925 33.785 11.1225 34.445 8.0625 35.125 C7.32237238 40.29903803 7.32237238 40.29903803 9.3984375 44.76953125 C11.23078609 46.30609406 11.23078609 46.30609406 14.0625 48.125 C10.97721025 55.6917162 10.97721025 55.6917162 7.6875 57.25 C5.0625 57.125 5.0625 57.125 2 56.0625 C-1.18791307 54.66855324 -1.18791307 54.66855324 -4.9375 57.125 C-4.4425 62.075 -4.4425 62.075 -3.9375 67.125 C-6.9075 68.445 -9.8775 69.765 -12.9375 71.125 C-16.02419204 68.03830796 -16.38605089 67.20572342 -16.9375 63.125 C-19.2475 63.125 -21.5575 63.125 -23.9375 63.125 C-24.5975 65.435 -25.2575 67.745 -25.9375 70.125 C-28.10717689 71.07965783 -29.50078793 71.26901212 -31.76171875 70.5234375 C-33.5059743 69.76629615 -35.22377131 68.94890802 -36.9375 68.125 C-36.90269531 67.42632812 -36.86789063 66.72765625 -36.83203125 66.0078125 C-36.80496094 65.09773438 -36.77789062 64.18765625 -36.75 63.25 C-36.71519531 62.34507812 -36.68039063 61.44015625 -36.64453125 60.5078125 C-36.74121094 59.72148437 -36.83789062 58.93515625 -36.9375 58.125 C-40.82754265 55.53163824 -42.44675922 56.33715074 -46.9375 57.125 C-50.9375 57.125 -50.9375 57.125 -52.45703125 55.69921875 C-52.88371094 55.07660156 -53.31039062 54.45398438 -53.75 53.8125 C-54.18957031 53.19761719 -54.62914063 52.58273438 -55.08203125 51.94921875 C-55.9375 50.125 -55.9375 50.125 -54.9375 47.125 C-54.07125 46.568125 -53.205 46.01125 -52.3125 45.4375 C-49.72274492 43.43979185 -49.72274492 43.43979185 -49.83203125 41.08984375 C-50.09720025 39.08516614 -50.50930526 37.10128342 -50.9375 35.125 C-53.2475 34.795 -55.5575 34.465 -57.9375 34.125 C-57.9375 32.125 -57.9375 32.125 -56.50390625 30.6796875 C-55.84261719 30.12539062 -55.18132812 29.57109375 -54.5 29 C-52.29856935 27.14194675 -50.11895937 25.29826203 -48.03515625 23.30859375 C-42.99921554 18.5319292 -37.50839233 14.65548261 -31.75 10.8125 C-30.59105225 10.03869995 -30.59105225 10.03869995 -29.40869141 9.24926758 C-21.35726582 3.9594966 -21.35726582 3.9594966 -16.9375 2.125 C-14.03379161 2.82189001 -11.5818471 3.83211496 -8.875 5.0625 C-8.235625 5.083125 -7.59625 5.10375 -6.9375 5.125 C-6.1125 4.3 -5.2875 3.475 -4.4375 2.625 C-1.9375 0.125 -1.9375 0.125 0 0 Z " fill="#E17320" transform="translate(178.9375,94.875)"/>
<path d="M0 0 C18.81 0 37.62 0 57 0 C57 18.15 57 36.3 57 55 C48.3375 55.0825 39.675 55.165 30.75 55.25 C26.65416504 55.30462402 26.65416504 55.30462402 22.47558594 55.36035156 C20.31185696 55.37203374 18.14811921 55.38222668 15.984375 55.390625 C14.86047363 55.41108887 13.73657227 55.43155273 12.57861328 55.45263672 C10.965271 55.45336182 10.965271 55.45336182 9.31933594 55.45410156 C8.38667908 55.46298401 7.45402222 55.47186646 6.49310303 55.48101807 C3.16164304 54.83824782 2.00257169 53.70714021 0 51 C-0.48101807 48.58282471 -0.48101807 48.58282471 -0.45410156 45.86425781 C-0.45361816 44.82930176 -0.45313477 43.7943457 -0.45263672 42.72802734 C-0.43217285 41.64730957 -0.41170898 40.5665918 -0.390625 39.453125 C-0.38659668 38.45458496 -0.38256836 37.45604492 -0.37841797 36.42724609 C-0.35750797 32.70131017 -0.3016624 28.97563642 -0.25 25.25 C-0.1675 16.9175 -0.085 8.585 0 0 Z " fill="#F7DDB9" transform="translate(260,124)"/>
<path d="M0 0 C2.73451432 0.52795078 5.3206408 1.22055005 8 2 C7.47212891 2.67482422 7.47212891 2.67482422 6.93359375 3.36328125 C-5.23937335 19.22310001 -9.60325816 31.97248141 -9.51642036 51.73466682 C-9.5036488 54.65655498 -9.5152041 57.57751822 -9.53245544 60.49937439 C-9.55897265 65.63847469 -9.56475721 70.7773426 -9.56335449 75.91650391 C-9.5611122 84.17196567 -9.57520463 92.42714356 -9.61894035 100.68249321 C-9.62877325 103.55875076 -9.62007117 106.43455809 -9.61024475 109.31080627 C-9.61638606 111.06796567 -9.62329682 112.8251226 -9.63110352 114.58227539 C-9.62338425 115.37968643 -9.61566498 116.17709747 -9.60771179 116.99867249 C-9.63728927 120.21825394 -9.79139874 122.60229838 -11.30039978 125.47923279 C-13.59606176 127.53334377 -15.65522718 127.79669787 -18.6875 127.640625 C-26.81646571 125.3886818 -32.78814072 117.21413991 -38 111 C-45.4697842 102.33505033 -55.0636342 97.09863698 -66 94 C-66 93.34 -66 92.68 -66 92 C-61.84665567 88.71193574 -57.733072 86.22826197 -52.89453125 84.08984375 C-48.98935145 81.84335887 -47.26820823 79.91046932 -45.98046875 75.5390625 C-45.71878906 74.24742187 -45.45710938 72.95578125 -45.1875 71.625 C-43.9163053 66.23819977 -42.74655388 62.30525937 -38.0625 59.0546875 C-34.90637696 57.44076095 -31.635178 56.21519059 -28.30859375 55 C-25.10753334 53.61341546 -23.15370608 51.70950119 -21 49 C-19.53597464 44.60792391 -19.7902887 40.02776381 -19.83398438 35.42382812 C-19.66949974 29.74661615 -19.66949974 29.74661615 -17.63500977 27.4777832 C-16.82181274 26.79268677 -16.82181274 26.79268677 -15.9921875 26.09375 C-13.92207673 24.29538171 -13.09705432 23.41321946 -12.46264648 20.7121582 C-12.29580255 18.06555542 -12.26450336 15.46383415 -12.3125 12.8125 C-12.32143207 11.02736182 -12.31806048 9.24210815 -12.30078125 7.45703125 C-12.31278564 6.67303955 -12.32479004 5.88904785 -12.3371582 5.08129883 C-11.27518692 -1.47431678 -5.1714219 -0.50716517 0 0 Z " fill="#033B60" transform="translate(254,83)"/>
<path d="M0 0 C5.98769864 4.50356821 9.65165986 11.43036067 11.078125 18.75 C12.04357247 27.77139435 9.9401907 35.48995627 4.265625 42.625 C2.09764049 45.02526857 0.21753834 46.22970942 -2.734375 47.5 C-6.14313278 49.34406017 -6.14313278 49.34406017 -6.33984375 52.15625 C-6.39520174 54.07532714 -6.44320752 55.99462852 -6.484375 57.9140625 C-7.23188927 62.75955681 -10.42081127 65.54069158 -13.921875 68.75 C-14.251875 69.08 -14.581875 69.41 -14.921875 69.75 C-20.30585857 70.21817248 -20.30585857 70.21817248 -22.484375 68.5625 C-22.95875 67.964375 -23.433125 67.36625 -23.921875 66.75 C-25.22125 65.7909375 -25.22125 65.7909375 -26.546875 64.8125 C-29.30153821 61.26043429 -29.13957708 60.16195279 -29.171875 55.8125 C-29.25315892 51.37064205 -29.25315892 51.37064205 -31.76171875 47.953125 C-33.34401304 47.01585916 -34.9452542 46.10995394 -36.5625 45.234375 C-41.60661628 42.06092436 -44.10590267 36.75284116 -46.296875 31.375 C-48.08719381 20.99115093 -46.89606496 13.64152264 -40.921875 4.75 C-30.00209364 -7.71399286 -13.68952189 -8.90375407 0 0 Z " fill="#082B4A" transform="translate(173.921875,200.25)"/>
<path d="M0 0 C13.42990717 -0.56044435 20.77138026 1.36188122 31 10 C34.12940707 12.89529927 37.13516452 15.89894507 40.125 18.9375 C40.88425781 19.69740234 41.64351563 20.45730469 42.42578125 21.24023438 C46.55268748 25.39910459 50.49212887 29.65870608 54.31640625 34.09594727 C57.05808894 37.1966409 59.98997706 40.09646994 62.9375 43 C63.52595703 43.58394531 64.11441406 44.16789062 64.72070312 44.76953125 C66.14479793 46.18204805 67.5720525 47.5913781 69 49 C59.31638027 55.45574649 43.19476702 53.20272214 32 53 C31.67 52.34 31.34 51.68 31 51 C30.01 51 29.02 51 28 51 C27.505 51.99 27.505 51.99 27 53 C24.36 52.67 21.72 52.34 19 52 C19 51.34 19 50.68 19 50 C18.2265625 50.2475 18.2265625 50.2475 17.4375 50.5 C7.6095875 52.51598205 -4.10056216 49.28715953 -13 45 C-17.12312786 41.82529138 -19.66435497 37.59450174 -22 33 C-22.39832031 32.21882813 -22.79664063 31.43765625 -23.20703125 30.6328125 C-23.46871094 30.09398437 -23.73039063 29.55515625 -24 29 C-23.34773437 28.75765625 -22.69546875 28.5153125 -22.0234375 28.265625 C-14.44618178 25.35989272 -8.34127677 22.7114205 -4.1015625 15.50390625 C-1.9299031 10.56761662 -0.98983239 5.27910608 0 0 Z " fill="#E2771D" transform="translate(191,324)"/>
<path d="M0 0 C8.71219026 4.86367491 14.29652495 12.7335453 17.63964844 22.03662109 C18.71454105 25.96664313 18.77711128 29.82424757 18.74609375 33.87890625 C18.74037354 34.75409912 18.73465332 35.62929199 18.72875977 36.53100586 C18.41061772 48.22085138 14.31484705 57.14962152 7.76171875 66.765625 C5.66135494 70.21390271 4.91811938 73.29642196 4.24609375 77.25390625 C-3.70040877 74.4492583 -8.10299181 70.04885926 -12.75390625 63.25390625 C-11.60375908 60.78417059 -10.7380374 59.2385333 -8.75390625 57.31640625 C-5.48952304 53.95001106 -4.64206773 50.8477756 -4.50390625 46.25390625 C-4.63564131 41.88194903 -5.40077383 38.76316933 -8.37890625 35.44140625 C-11.81347406 33.72412234 -15.03701822 33.57407782 -18.75390625 34.25390625 C-22.03372376 36.32161729 -23.60136632 38.02509636 -25.75390625 41.25390625 C-28.13671875 41.546875 -28.13671875 41.546875 -30.87890625 41.44140625 C-32.24402344 41.40080078 -32.24402344 41.40080078 -33.63671875 41.359375 C-34.33539063 41.32457031 -35.0340625 41.28976563 -35.75390625 41.25390625 C-43.33229044 22.71393064 -43.33229044 22.71393064 -39.6796875 13.5625 C-31.63863195 -1.21982404 -15.46300207 -7.10061055 0 0 Z " fill="#022949" transform="translate(344.75390625,199.74609375)"/>
<path d="M0 0 C3.07479662 3.07479662 3.7558307 6.89843871 5 11 C5.23380371 11.7636084 5.46760742 12.5272168 5.70849609 13.31396484 C16.11294393 48.94676423 9.87261819 87.05542104 -6 120 C-6.66 120.99 -7.32 121.98 -8 123 C-10.625 123.1875 -10.625 123.1875 -13 123 C-13.62762455 121.77217138 -14.25196065 120.54266164 -14.875 119.3125 C-15.22304688 118.62800781 -15.57109375 117.94351563 -15.9296875 117.23828125 C-20.03733562 108.6481996 -20.1187152 100.58519254 -17.1171875 91.5234375 C-15.85345526 88.66899334 -14.29530191 86.22048441 -12.5625 83.625 C-4.48373523 71.31857655 -2.68407972 57.19589863 -5.66015625 42.80859375 C-8.69242264 34.42063607 -14.3708045 27.50816098 -22 23 C-23.875 21.25 -23.875 21.25 -25 20 C-24 17 -24 17 -21.69921875 15.78125 C-20.70535156 15.3584375 -19.71148437 14.935625 -18.6875 14.5 C-11.17971832 10.94890038 -5.81433508 5.79371687 0 0 Z " fill="#004267" transform="translate(367,178)"/>
<path d="M0 0 C3.0625 0.3125 3.0625 0.3125 4.875 1.4375 C6.63733317 4.22013132 7.12874009 6.00049556 7.0625 9.3125 C5.25318954 11.43071712 3.38287723 12.70244233 1.0625 14.3125 C2.56086105 17.42448065 4.26183758 20.3659615 6.0625 23.3125 C7.3928125 22.7865625 7.3928125 22.7865625 8.75 22.25 C12.18099325 21.27896417 13.72591126 21.23036311 17.0625 22.3125 C18.0525 22.9725 19.0425 23.6325 20.0625 24.3125 C19.7325 27.6125 19.4025 30.9125 19.0625 34.3125 C22.3625 34.9725 25.6625 35.6325 29.0625 36.3125 C30.0525 34.0025 31.0425 31.6925 32.0625 29.3125 C34.3725 29.3125 36.6825 29.3125 39.0625 29.3125 C40.0525 31.6225 41.0425 33.9325 42.0625 36.3125 C42.84625 36.250625 43.63 36.18875 44.4375 36.125 C45.736875 36.2178125 45.736875 36.2178125 47.0625 36.3125 C49.0625 39.3125 49.0625 39.3125 49.0625 43.3125 C44.48780078 44.41957721 39.99150076 44.55940442 35.3125 44.75 C29.05208036 45.0616159 23.07460835 45.410943 17.0625 47.3125 C16.19625 47.57933594 15.33 47.84617188 14.4375 48.12109375 C7.73141099 50.36577077 2.01101578 53.5291974 -3.9375 57.3125 C-4.9275 57.8075 -4.9275 57.8075 -5.9375 58.3125 C-5.9375 53.6925 -5.9375 49.0725 -5.9375 44.3125 C-1.4825 43.8175 -1.4825 43.8175 3.0625 43.3125 C-3.75418019 35.63838821 -3.75418019 35.63838821 -10.9375 28.3125 C-13.86450833 29.62136976 -15.80934315 30.97476088 -17.953125 33.3515625 C-18.74589844 34.22167969 -18.74589844 34.22167969 -19.5546875 35.109375 C-20.09351562 35.71265625 -20.63234375 36.3159375 -21.1875 36.9375 C-21.74179688 37.54851562 -22.29609375 38.15953125 -22.8671875 38.7890625 C-24.2292841 40.29206565 -25.58411601 41.8016468 -26.9375 43.3125 C-23.6375 43.6425 -20.3375 43.9725 -16.9375 44.3125 C-16.59219889 48.45566252 -16.32114087 52.60059779 -16.0625 56.75 C-15.91554688 58.49700195 -15.91554688 58.49700195 -15.765625 60.27929688 C-15.30649098 68.4289257 -16.49364979 73.14502342 -21.9375 79.3125 C-22.906875 78.425625 -23.87625 77.53875 -24.875 76.625 C-28.88268469 73.16755071 -33.24311573 70.71823888 -37.9375 68.3125 C-35.50402465 52.87627577 -19.38565384 2.0623036 0 0 Z " fill="#035271" transform="translate(122.9375,128.6875)"/>
<path d="M0 0 C0.556875 0.70125 1.11375 1.4025 1.6875 2.125 C2.450625 3.07375 3.21375 4.0225 4 5 C4.7425 5.99 5.485 6.98 6.25 8 C8.31926218 10.56717839 10.31017718 11.73333764 13.25 13.1875 C15.34765625 14.41796875 15.34765625 14.41796875 17 16 C17.64852092 18.67118058 17.68909793 21.11712842 17.7265625 23.86328125 C18.22660868 29.59952527 20.73992646 34.75429425 23 40 C22.05640625 40.23074219 21.1128125 40.46148437 20.140625 40.69921875 C2.18056474 45.20335336 -12.93580721 52.66003514 -26.36328125 65.6015625 C-28 67 -28 67 -30 67 C-30.176521 66.13721436 -30.35304199 65.27442871 -30.53491211 64.38549805 C-31.19132344 61.18158046 -31.84937706 57.97800932 -32.50854492 54.7746582 C-32.79338331 53.38872571 -33.07756832 52.00265876 -33.36108398 50.61645508 C-33.76894774 48.62285135 -34.1791664 46.62974453 -34.58984375 44.63671875 C-34.83597412 43.43748779 -35.08210449 42.23825684 -35.33569336 41.00268555 C-35.9517673 37.9716436 -35.9517673 37.9716436 -37 35 C-40.3 34.67 -43.6 34.34 -47 34 C-47 33.67 -47 33.34 -47 33 C-46.41734375 32.98582031 -45.8346875 32.97164063 -45.234375 32.95703125 C-33.99852317 32.3033732 -25.13337672 28.14031977 -17.0625 20.328125 C-12.23388487 14.87764277 -10.50235162 9.01097424 -9 2 C-6.03 1.34 -3.06 0.68 0 0 Z " fill="#D05325" transform="translate(331,261)"/>
<path d="M0 0 C2.62697064 -0.22137393 5.00893964 -0.28162025 7.625 -0.1875 C8.33140625 -0.17396484 9.0378125 -0.16042969 9.765625 -0.14648438 C11.51074128 -0.1111104 13.25546608 -0.05730221 15 0 C14.67418945 0.57057129 14.34837891 1.14114258 14.01269531 1.72900391 C12.92593989 4.16608176 12.77257272 5.68988251 12.796875 8.3359375 C12.78527344 9.15320313 12.77367187 9.97046875 12.76171875 10.8125 C12.75394198 12.513021 12.76161259 14.21368671 12.78515625 15.9140625 C12.65648884 22.20886792 12.65648884 22.20886792 10.6394043 24.63964844 C9.5489987 25.58895415 8.45388215 26.5328772 7.35400391 27.47119141 C4.80405441 30.35034462 5.23183668 33.82820564 5.3125 37.5 C5.34702563 43.11288057 5.17865436 47.12080144 2 52 C-0.84881984 54.71631659 -3.70839574 55.67980398 -7.4375 56.8125 C-13.65773037 58.98543381 -16.16226404 61.42125103 -19.1875 67.3125 C-20.03365091 69.87610971 -20.03365091 69.87610971 -20.3125 72.1015625 C-21.20662954 77.6712444 -22.61242449 80.3845822 -27.14453125 83.8046875 C-29.65974561 85.42501507 -32.31438109 86.68459482 -35 88 C-36.34360932 89.07056195 -37.6763227 90.15488937 -39 91.25 C-42.55506431 94.00823955 -42.55506431 94.00823955 -46.375 93.9375 C-49 93 -49 93 -51 92 C-51 91.34 -51 90.68 -51 90 C-49.37149945 88.91932224 -47.69452478 87.91139128 -46 86.9375 C-35.12161858 80.15598973 -28.85183361 70.99231151 -25.75 58.5625 C-24.69630968 53.09523891 -24.38254508 47.54690372 -24 42 C-20.04 42 -16.08 42 -12 42 C-12 42.66 -12 43.32 -12 44 C-7.9899066 44.17864631 -7.9899066 44.17864631 -4 44 C-1.58878141 42.04366025 -1.58878141 42.04366025 -1.875 38.375 C-1.91625 37.26125 -1.9575 36.1475 -2 35 C-5.30567489 34.14612895 -5.30567489 34.14612895 -9 34 C-9.91265625 34.97453125 -9.91265625 34.97453125 -10.84375 35.96875 C-13 38 -13 38 -16.015625 38.390625 C-17.08296875 38.34421875 -18.1503125 38.2978125 -19.25 38.25 C-20.32765625 38.21390625 -21.4053125 38.1778125 -22.515625 38.140625 C-23.33546875 38.09421875 -24.1553125 38.0478125 -25 38 C-25.66 35.03 -26.32 32.06 -27 29 C-26.01 29.020625 -25.02 29.04125 -24 29.0625 C-16.32201037 29.18404364 -16.32201037 29.18404364 -9.50390625 26.15234375 C-8.23462847 24.70429445 -6.99090929 23.23333026 -5.77734375 21.73828125 C-4 20 -4 20 -1.81640625 19.54296875 C0.1270108 19.61571698 2.06554511 19.79988398 4 20 C6.30662599 18.11340125 6.30662599 18.11340125 6.3125 15 C6.1578125 13.515 6.1578125 13.515 6 12 C3.18467943 9.73510628 3.18467943 9.73510628 0 9.9375 C-0.99 10.288125 -1.98 10.63875 -3 11 C-3.75937203 12.65080876 -4.5068945 14.31017979 -5.14453125 16.01171875 C-6.92749736 20.15569021 -8.9747979 22.86103349 -13 25 C-18.49618389 26.41412984 -24.55199247 26.75079596 -30 25 C-32.88338021 22.48398379 -34.46400284 20.09515565 -36.3515625 16.78125 C-38.63515099 12.92837085 -41.21699424 11.28556598 -45 9 C-44.67 8.34 -44.34 7.68 -44 7 C-41.26700404 6.21533702 -38.58531563 5.54369328 -35.8125 4.9375 C-35.05646484 4.76412109 -34.30042969 4.59074219 -33.52148438 4.41210938 C-29.36524589 3.47127829 -25.21314457 2.6517943 -21 2 C-20.01 4.31 -19.02 6.62 -18 9 C-15.12586875 9.33397787 -15.12586875 9.33397787 -12 9 C-10.98594743 7.67732273 -9.98731742 6.34275169 -9 5 C-6.67451993 4.30643577 -4.34119555 3.63850788 -2 3 C-1.34 2.01 -0.68 1.02 0 0 Z " fill="#03395E" transform="translate(227,81)"/>
<path d="M0 0 C0.06953763 7.88429527 0.12283008 15.76846222 0.15543652 23.65298843 C0.17108671 27.31417937 0.19231272 30.97516036 0.22631836 34.63623047 C0.25893557 38.16997082 0.27685788 41.70350934 0.28463173 45.23738861 C0.29286531 47.24045982 0.31628107 49.24344993 0.33988953 51.24639893 C0.34011612 52.46736267 0.34034271 53.68832642 0.34057617 54.94628906 C0.34723801 56.02106506 0.35389984 57.09584106 0.36076355 58.20318604 C-0.05117026 61.39669665 -0.71236149 62.75653406 -3 65 C-7.4483638 65.93649764 -9.59713398 65.85048752 -13.5 63.484375 C-19.00976653 59.21766555 -23.60426162 54.37969928 -28 49 C-29.14307461 47.66430084 -30.28875741 46.33082766 -31.4375 45 C-32.283125 44.01 -33.12875 43.02 -34 42 C-33.21367187 41.33226562 -32.42734375 40.66453125 -31.6171875 39.9765625 C-28.60940051 36.55576595 -27.90605284 33.70994629 -27.125 29.375 C-24.943777 19.32989409 -20.80005436 11.09360381 -12.05859375 5.21484375 C-3.22186495 0 -3.22186495 0 0 0 Z " fill="#003E63" transform="translate(244,145)"/>
<path d="M0 0 C2.5625 2.3125 2.5625 2.3125 4 4 C2.9275 3.67 1.855 3.34 0.75 3 C-8.16139553 0.84300144 -15.85041052 1.03697729 -23.8828125 5.65625 C-24.58148438 6.0996875 -25.28015625 6.543125 -26 7 C-26.928125 7.5775 -27.85625 8.155 -28.8125 8.75 C-33.50071351 13.57216246 -36.28991319 18.57006505 -36.5625 25.375 C-36.33626912 30.55641699 -34.86695113 34.92895008 -32.875 39.6875 C-32 42 -32 42 -32 45 C-37.70589472 45.45647158 -40.60098008 44.69917584 -45 41 C-48.78077703 35.89778634 -48.7894454 30.65051655 -49.375 24.49609375 C-50.00964254 20.94606203 -50.37085975 19.41335768 -53 17 C-55.80256155 15.80309117 -55.80256155 15.80309117 -58.9375 15 C-63.38244281 13.76621166 -66.08141599 12.656937 -69 9 C-69.25 6.1875 -69.25 6.1875 -68 3 C-51.64329844 -15.17411285 -18.9535287 -12.94885474 0 0 Z " fill="#D05325" transform="translate(341,196)"/>
<path d="M0 0 C15.06248392 -0.69608398 26.17212073 1.0055304 38 11 C42.0326296 14.7578183 45.92760838 18.64510657 49.81640625 22.55078125 C50.9242643 23.65728927 52.03241887 24.76350049 53.14085388 25.86943054 C55.44424731 28.16989725 57.74403862 30.47388777 60.04125977 32.78051758 C62.99018231 35.7409277 65.94812183 38.69214099 68.90873814 41.64085102 C71.18992638 43.9148341 73.46635712 46.1935315 75.74134636 48.47371483 C76.83116721 49.56487106 77.92247905 50.65454021 79.01529121 51.74270058 C80.53273414 53.25509025 82.04366237 54.77369545 83.55297852 56.29418945 C84.4140773 57.15687943 85.27517609 58.0195694 86.16236877 58.90840149 C88 61 88 61 88 63 C88.66 63 89.32 63 90 63 C89.67 63.99 89.34 64.98 89 66 C85.27207943 67.39774778 81.99620503 68.1754493 78 68 C73.86474973 65.55121793 70.92344399 62.19758834 67.75 58.625 C66.4815625 57.28115234 66.4815625 57.28115234 65.1875 55.91015625 C60.88980895 51.32550757 56.7635663 46.59480687 52.64013672 41.85400391 C39.27095122 26.74153075 29.41470038 19.28981767 9 18 C8.83105225 17.40106934 8.66210449 16.80213867 8.48803711 16.18505859 C6.69988506 9.99382248 3.78353584 5.17940343 0 0 Z " fill="#026785" transform="translate(182,306)"/>
<path d="M0 0 C0.80125809 -0.01947189 1.60251617 -0.03894379 2.42805481 -0.05900574 C4.13182303 -0.09175007 5.83578317 -0.1155381 7.53979492 -0.13110352 C10.0934532 -0.16724583 12.63797516 -0.27290364 15.18945312 -0.38085938 C31.89053023 -0.75358859 42.47027814 6.82880342 54.33203125 17.9296875 C55.95703125 19.64453125 55.95703125 19.64453125 55.95703125 20.64453125 C33.84703125 20.64453125 11.73703125 20.64453125 -11.04296875 20.64453125 C-11.04296875 15.03453125 -11.04296875 9.42453125 -11.04296875 3.64453125 C-7.35778007 -0.04065743 -4.91503372 0.10199982 0 0 Z " fill="#F7DEBA" transform="translate(272.04296875,99.35546875)"/>
<path d="M0 0 C4.82347 2.54195827 8.03538945 6.1335121 9.74609375 11.265625 C10.45786512 18.12913462 10.53800345 23.970288 6.2734375 29.640625 C1.66888239 34.539589 -2.12573136 35.54146772 -8.69140625 35.890625 C-14.27574299 35.71711856 -17.57682378 34.637883 -21.734375 30.91796875 C-26.30131588 25.9518608 -27.70608602 21.12068441 -27.59375 14.41796875 C-26.75290572 9.09262165 -23.20888894 4.7669189 -19.25390625 1.265625 C-13.75011486 -2.2949418 -6.06619339 -1.97650668 0 0 Z " fill="#F2D6B0" transform="translate(171.25390625,308.734375)"/>
<path d="M0 0 C4.00521387 2.88747977 7.46370991 6.48991981 9.6875 10.9375 C10.29899925 17.37000171 9.79930003 22.26957852 6.6875 27.9375 C6.0275 28.72125 5.3675 29.505 4.6875 30.3125 C1.9703398 33.87877276 0.91577669 37.66644695 -0.3125 41.9375 C-2.2925 41.9375 -4.2725 41.9375 -6.3125 41.9375 C-6.42114945 39.87617858 -6.49838321 37.81318679 -6.5625 35.75 C-6.60890625 34.60144531 -6.6553125 33.45289063 -6.703125 32.26953125 C-6.23685607 28.29225724 -4.95573049 26.8581688 -2.3125 23.9375 C-1.9825 22.9475 -1.6525 21.9575 -1.3125 20.9375 C-4.47365776 22.30733503 -5.3052092 22.9265638 -7.3125 25.9375 C-7.9725 25.9375 -8.6325 25.9375 -9.3125 25.9375 C-10.3125 24.60416667 -11.3125 23.27083333 -12.3125 21.9375 C-12.9725 21.9375 -13.6325 21.9375 -14.3125 21.9375 C-13.23848892 24.85267292 -12.53439824 26.71560176 -10.3125 28.9375 C-10.1171875 31.9765625 -10.1171875 31.9765625 -10.1875 35.5625 C-10.20554688 36.75101563 -10.22359375 37.93953125 -10.2421875 39.1640625 C-10.26539063 40.07929688 -10.28859375 40.99453125 -10.3125 41.9375 C-12.2925 41.9375 -14.2725 41.9375 -16.3125 41.9375 C-16.45945313 41.380625 -16.60640625 40.82375 -16.7578125 40.25 C-18.33576735 34.88132602 -20.40094625 31.04150781 -24.0078125 26.76171875 C-27.2230196 22.26620463 -26.90837047 16.23319391 -26.3125 10.9375 C-21.03360535 0.17667629 -11.30086859 -3.62480691 0 0 Z " fill="#FAE0BB" transform="translate(164.3125,206.0625)"/>
<path d="M0 0 C7.43788968 6.423632 7.43788968 6.423632 8.19921875 11.18359375 C8.4367506 17.74438715 7.9226053 22.23948579 3.75 27.375 C-1.23824796 31.34523818 -5.32795937 32.0182003 -11.6640625 31.7578125 C-16.92759932 30.97861823 -19.45423274 28.42885393 -22.5625 24.3125 C-25.17734067 19.76074032 -26.18318523 15.57032929 -25.25 10.375 C-23.04234544 5.49450653 -20.49561904 2.15057412 -15.9375 -0.6875 C-10.08904689 -2.17439486 -5.50235617 -2.75117809 0 0 Z " fill="#052949" transform="translate(166.25,112.625)"/>
<path d="M0 0 C17 0 17 0 20.9609375 2.484375 C22.2578125 4.0703125 22.2578125 4.0703125 23.375 5.75 C24.00921875 6.55824219 24.00921875 6.55824219 24.65625 7.3828125 C25.8208708 8.88436762 26.91352445 10.44096817 28 12 C28.79845337 12.9290918 28.79845337 12.9290918 29.61303711 13.87695312 C31.30301798 16.4638346 31.34904126 17.91907774 31.29296875 20.984375 C31.28330078 21.91894531 31.27363281 22.85351562 31.26367188 23.81640625 C31.23853516 24.78449219 31.21339844 25.75257813 31.1875 26.75 C31.16719727 28.22533203 31.16719727 28.22533203 31.14648438 29.73046875 C31.11118726 32.15420415 31.06188054 34.57682145 31 37 C30.24332031 36.21238281 29.48664063 35.42476562 28.70703125 34.61328125 C25.95127066 31.95295825 23.48093956 30.53808957 20 29 C20 28.34 20 27.68 20 27 C20.825 26.2575 21.65 25.515 22.5 24.75 C25.21722459 22.22848597 25.21722459 22.22848597 25.625 19 C24.77618008 14.9256644 23.32274404 13.45594125 20 11 C16.47534272 10.57704113 14.36366391 10.8787787 11 12 C9.39282354 14.8125588 8.99348168 16.693639 9.0625 19.9375 C10.28633987 23.9353769 12.16729334 25.94939282 15 29 C14.0925 29.391875 13.185 29.78375 12.25 30.1875 C8.14752544 32.47541851 5.93718372 35.01537565 3.9375 39.25 C3 41 3 41 0 42 C0 28.14 0 14.28 0 0 Z " fill="#036986" transform="translate(317,124)"/>
<path d="M0 0 C6.61111196 0.88377712 13.52076729 3.96820343 18.125 8.875 C20.45441714 12.7573619 20.76931997 14.53794419 20 19 C17.99839784 23.27113532 15.40701472 27.9853647 11 30 C3.05305223 31.30040964 -3.04951252 27.56000578 -10 24 C-9.3312154 18.85871838 -7.12123277 14.42264561 -5 9.75 C-4.44699219 8.50863281 -4.44699219 8.50863281 -3.8828125 7.2421875 C-1.14332217 1.14332217 -1.14332217 1.14332217 0 0 Z " fill="#0C2E51" transform="translate(296,37)"/>
<path d="M0 0 C5.45280612 -0.36352041 5.45280612 -0.36352041 7.67578125 1.11328125 C9.47855274 3.68183178 10.82107214 6.36354909 12.1875 9.1875 C12.71730469 10.27417969 13.24710937 11.36085938 13.79296875 12.48046875 C14.19128906 13.31191406 14.58960938 14.14335938 15 15 C15.99 11.37 16.98 7.74 18 4 C20.64 4.33 23.28 4.66 26 5 C24.45592542 13.82641212 22.8842074 22.4905654 20 31 C16.93135177 31.2505019 15.70197341 31.34577054 13 30 C9.63674277 25.62386994 6 20.6443849 6 15 C5.34 15 4.68 15 4 15 C3.855625 16.2375 3.71125 17.475 3.5625 18.75 C3.21311498 21.56504499 2.79620634 24.2701497 2 27 C-0.31 26.67 -2.62 26.34 -5 26 C-4.56901343 17.03547936 -2.30110566 8.62647053 0 0 Z " fill="#0A2D50" transform="translate(262,28)"/>
<path d="M0 0 C4.62476327 3.9640828 8.74240229 7.70264383 12.75 12.1875 C18.31542089 18.3217475 24.09131276 24.19599423 30 30 C26.64301051 32.23799299 24.58906362 32.56379549 20.625 33.125 C18.94277344 33.37636719 18.94277344 33.37636719 17.2265625 33.6328125 C11.50462318 34.12991259 5.7434918 34 0 34 C0 22.78 0 11.56 0 0 Z " fill="#CF5325" transform="translate(230,343)"/>
<path d="M0 0 C0.33 0.66 0.66 1.32 1 2 C3.07879278 2.20447142 5.15789832 2.40614703 7.23828125 2.59375 C12.31110417 3.3399644 17.35901455 4.81512049 22 7 C22.495 8.485 22.495 8.485 23 10 C21.91796875 11.69140625 21.91796875 11.69140625 20.1875 13.5625 C19.23230469 14.60083984 19.23230469 14.60083984 18.2578125 15.66015625 C14.23083473 19.8334429 10.13800137 23.93693225 6 28 C-1.76537014 20.2875455 -8.23969126 12.35115056 -14 3 C-14 2.67 -14 2.34 -14 2 C-13.07316406 1.93941406 -12.14632812 1.87882812 -11.19140625 1.81640625 C-9.39509766 1.69072266 -9.39509766 1.69072266 -7.5625 1.5625 C-5.77005859 1.44068359 -5.77005859 1.44068359 -3.94140625 1.31640625 C-1.11429756 1.32343886 -1.11429756 1.32343886 0 0 Z " fill="#CF5325" transform="translate(116,303)"/>
<path d="M0 0 C3.31495955 3.10109119 4.79453947 5.01877349 5.2734375 9.63671875 C5.47828203 15.78993319 5.30583546 20.35096671 1.52734375 25.375 C-3.15544512 30.35719992 -6.8879673 31.2570136 -13.5625 31.5 C-18.99966665 31.34966359 -21.99561828 30.66114901 -26 27 C-22.20880012 22.23392015 -18.06385577 18.14045459 -13.5625 14.0625 C-8.68732054 9.64484376 -4.14614765 5.12614619 0 0 Z " fill="#ECC692" transform="translate(176,313)"/>
<path d="M0 0 C3.9761282 1.6017578 6.67101247 4.3736223 9.625 7.375 C10.11484375 7.85710937 10.6046875 8.33921875 11.109375 8.8359375 C13.75854572 11.49958456 15.29127212 13.58254424 17 17 C13.7 17 10.4 17 7 17 C7.0928125 17.9178125 7.185625 18.835625 7.28125 19.78125 C7.86231156 29.65929648 7.86231156 29.65929648 5.32421875 33.60546875 C3.30541941 35.57259864 1.24330502 37.29714705 -1 39 C-1.99 39.99 -2.98 40.98 -4 42 C-4 33.75 -4 25.5 -4 17 C-7.63 17 -11.26 17 -15 17 C-10.10995345 11.23225279 -5.07515796 5.60523001 0 0 Z " fill="#CF5424" transform="translate(110,156)"/>
<path d="M0 0 C2.52090778 -0.0272367 5.04151457 -0.04695207 7.5625 -0.0625 C8.61920898 -0.07506836 8.61920898 -0.07506836 9.69726562 -0.08789062 C14.24024798 -0.10882603 18.51784892 0.25199318 23 1 C23 2.98 23 4.96 23 7 C18.05 7 13.1 7 8 7 C8 8.32 8 9.64 8 11 C11.96 11 15.92 11 20 11 C20 12.98 20 14.96 20 17 C16.04 17 12.08 17 8 17 C8 17.99 8 18.98 8 20 C14.93 20.495 14.93 20.495 22 21 C22 23.31 22 25.62 22 28 C19.6664473 27.85719144 17.33320412 27.71081563 15 27.5625 C13.700625 27.48128906 12.40125 27.40007813 11.0625 27.31640625 C7.01810432 27.03246751 3.01859884 26.53372016 -1 26 C-1.02724423 23.16660035 -1.04695589 20.33346883 -1.0625 17.5 C-1.07087891 16.70851563 -1.07925781 15.91703125 -1.08789062 15.1015625 C-1.10891185 9.97238283 -0.73937287 5.07663894 0 0 Z " fill="#0D2E52" transform="translate(232,25)"/>
<path d="M0 0 C3.0625 1.5 3.0625 1.5 5 3 C4.67 4.32 4.34 5.64 4 7 C1.69 7.33 -0.62 7.66 -3 8 C-3 7.34 -3 6.68 -3 6 C-4.65 6.33 -6.3 6.66 -8 7 C-8.33 7.99 -8.66 8.98 -9 10 C-7.67935547 9.93039063 -7.67935547 9.93039063 -6.33203125 9.859375 C-5.17058594 9.82328125 -4.00914062 9.7871875 -2.8125 9.75 C-1.66394531 9.70359375 -0.51539063 9.6571875 0.66796875 9.609375 C4.66209058 10.07761906 6.23005213 11.13312946 9 14 C9.75 17.375 9.75 17.375 9 21 C6.40613681 24.23691006 3.46621006 26.47366818 -0.4375 27.875 C-1.7059375 27.936875 -1.7059375 27.936875 -3 28 C-3.64195312 28.06058594 -4.28390625 28.12117188 -4.9453125 28.18359375 C-8.51411905 28.40088271 -10.58029554 28.28662743 -13.5625 26.25 C-15 24 -15 24 -14.75 21.75 C-14.5025 21.1725 -14.255 20.595 -14 20 C-10.535 19.505 -10.535 19.505 -7 19 C-6.67 19.66 -6.34 20.32 -6 21 C-4.35 20.67 -2.7 20.34 -1 20 C-0.67 19.01 -0.34 18.02 0 17 C-0.96421875 17.05800781 -1.9284375 17.11601563 -2.921875 17.17578125 C-4.18515625 17.22089844 -5.4484375 17.26601563 -6.75 17.3125 C-8.00296875 17.37050781 -9.2559375 17.42851563 -10.546875 17.48828125 C-14 17 -14 17 -16.4375 14.69921875 C-18 12 -18 12 -18.25 8.5 C-16.72922536 4.24183101 -15.2137838 2.99477377 -11.32421875 0.87890625 C-7.49180027 -0.57032763 -4.01748286 -0.73322881 0 0 Z " fill="#0E2F53" transform="translate(189,30)"/>
<path d="M0 0 C1.41015625 1.43359375 1.41015625 1.43359375 3.0625 3.4375 C6.51308772 7.51876236 10.222498 11.22841461 14.08203125 14.921875 C15.89359704 16.88471206 16.96062858 18.55830206 18 21 C15.3125 22.625 15.3125 22.625 12 24 C11.195625 23.67 10.39125 23.34 9.5625 23 C6.84470474 21.64055085 6.84470474 21.64055085 3.3125 23.0625 C-0.16321287 24.63563993 -0.16321287 24.63563993 -1 27.5625 C-1.33 28.366875 -1.66 29.17125 -2 30 C-4.31 30.66 -6.62 31.32 -9 32 C-9.33 22.76 -9.66 13.52 -10 4 C-2 0 -2 0 0 0 Z " fill="#0B2D51" transform="translate(157,39)"/>
<path d="M0 0 C2.89495027 2.19229244 3.99801471 3.90877889 4.921875 7.40625 C4.963125 8.293125 5.004375 9.18 5.046875 10.09375 C3.768125 10.155625 2.489375 10.2175 1.171875 10.28125 C0.45257813 10.31605469 -0.26671875 10.35085937 -1.0078125 10.38671875 C-1.64976562 10.29003906 -2.29171875 10.19335938 -2.953125 10.09375 C-3.613125 9.10375 -4.273125 8.11375 -4.953125 7.09375 C-8.03678371 6.8435343 -8.03678371 6.8435343 -10.953125 7.09375 C-10.98010689 8.71865954 -10.99951257 10.34369633 -11.015625 11.96875 C-11.02722656 12.87367187 -11.03882813 13.77859375 -11.05078125 14.7109375 C-11.11561757 17.1106085 -11.11561757 17.1106085 -9.953125 19.09375 C-7.973125 19.09375 -5.993125 19.09375 -3.953125 19.09375 C-3.293125 17.77375 -2.633125 16.45375 -1.953125 15.09375 C0.356875 15.09375 2.666875 15.09375 5.046875 15.09375 C5.36420184 18.5843452 5.51208783 20.44960916 3.421875 23.34375 C-1.34679911 26.85750987 -6.10610148 27.72021681 -11.953125 27.09375 C-16.29493581 24.83934823 -19.18797971 22.70274048 -20.953125 18.09375 C-21.66809478 13.43561354 -22.057704 9.08060279 -19.7109375 4.859375 C-14.84369803 -1.00068446 -7.26914901 -3.37288514 0 0 Z " fill="#0E2F53" transform="translate(220.953125,25.90625)"/>
<path d="M0 0 C0.07420941 5.33851078 0.12863002 10.67672067 0.16479492 16.015625 C0.17987262 17.83143342 0.20033798 19.64720547 0.22631836 21.46289062 C0.2627468 24.07431008 0.27973638 26.68524765 0.29296875 29.296875 C0.30845261 30.10743347 0.32393646 30.91799194 0.33988953 31.75311279 C0.34087249 35.05210388 0.23511457 37.5426966 -1.2878418 40.50488281 C-3.62272362 42.54378432 -5.75637301 42.66300518 -8.79296875 42.5390625 C-12.91039156 41.53339109 -15.89478909 38.77486932 -19 36 C-18.60167969 35.5875 -18.20335937 35.175 -17.79296875 34.75 C-10.90327505 27.24006623 -9.52859309 19.26095998 -7.94140625 9.48828125 C-6.92706878 5.72976109 -5.6799803 3.78325507 -3 1 C-1 0 -1 0 0 0 Z " fill="#003D62" transform="translate(244,168)"/>
<path d="M0 0 C7.95001763 2.77130896 13.76141499 8.82014116 18.02734375 15.9453125 C20.74086487 21.67748964 21.28906576 26.51706977 21.1875 32.75 C21.18685547 33.51699219 21.18621094 34.28398437 21.18554688 35.07421875 C21.14091099 40.71817801 21.14091099 40.71817801 20 43 C18.12280273 42.69848633 18.12280273 42.69848633 16 42 C14.49140298 39.56165133 13.26131713 37.27223798 12.0625 34.6875 C11.71550049 33.9641748 11.36850098 33.24084961 11.01098633 32.49560547 C0 9.31646801 0 9.31646801 0 0 Z " fill="#004267" transform="translate(85,262)"/>
<path d="M0 0 C2.625 -0.1875 2.625 -0.1875 5 0 C4.51144531 0.45632812 4.02289063 0.91265625 3.51953125 1.3828125 C0.85184561 5.97754099 1.64164829 11.35499015 1.73632812 16.55859375 C1.64217102 23.20905859 1.64217102 23.20905859 -0.35839844 25.6730957 C-1.44782833 26.62141695 -2.54439122 27.56161078 -3.64819336 28.49316406 C-6.19724358 31.33454712 -5.72791069 34.80025025 -5.625 38.4375 C-5.51045384 44.88072154 -6.24084964 48.64422126 -10 54 C-14.16811235 56.88561624 -18.27990267 58.5998884 -23.10546875 60.09375 C-25.75681206 61.36202144 -27.16774341 62.68577195 -29 65 C-30.05189502 68.4774728 -30.05189502 68.4774728 -30.75 72.3125 C-32.12946664 78.28708188 -33.81231425 82.04452401 -38.84375 85.71484375 C-41.58376999 87.34793538 -44.34122749 88.83740661 -47.24609375 90.15625 C-49.17689244 91.01378645 -49.17689244 91.01378645 -51.3125 92.75 C-53 94 -53 94 -56 94 C-53.54033634 88.18967206 -48.28153358 85.09689115 -42.75 82.4375 C-39.35553015 80.66311803 -37.967239 79.30215117 -36 76 C-35.41239535 73.49008871 -34.98491152 70.97419958 -34.55078125 68.43359375 C-33.2853848 62.84251582 -29.71397247 59.0089186 -25 56 C-22.19549747 54.95397409 -19.38503114 54.00307805 -16.5234375 53.125 C-13.62680572 51.83362237 -12.60542063 50.6995608 -11 48 C-9.53597464 43.60792391 -9.7902887 39.02776381 -9.83398438 34.42382812 C-9.66979447 28.75678855 -9.66979447 28.75678855 -7.63720703 26.46020508 C-7.09563965 25.9989624 -6.55407227 25.53771973 -5.99609375 25.0625 C-3.18608757 22.62063517 -2.54087431 21.07970408 -2.265625 17.36328125 C-2.23140717 15.6800272 -2.22681564 13.99594217 -2.25 12.3125 C-2.24234055 10.62103892 -2.22703982 8.9295906 -2.203125 7.23828125 C-2.20989258 6.49618408 -2.21666016 5.75408691 -2.22363281 4.98950195 C-2 3 -2 3 0 0 Z " fill="#C76726" transform="translate(241,82)"/>
<path d="M0 0 C2.04296875 2.328125 2.04296875 2.328125 4.1875 5.25 C4.90292969 6.20390625 5.61835937 7.1578125 6.35546875 8.140625 C8.08893456 11.15463206 8.47753973 12.59826634 8 16 C6.75 17.8125 6.75 17.8125 5 19 C3.68 19 2.36 19 1 19 C0.01 21.475 0.01 21.475 -1 24 C-4.1875 24.8125 -4.1875 24.8125 -8 25 C-10.625 23 -10.625 23 -13 20 C-13.46792969 19.40960938 -13.93585938 18.81921875 -14.41796875 18.2109375 C-18 13.49509804 -18 13.49509804 -18 10 C-15.82960449 7.76941538 -13.21163558 6.0625565 -10.6875 4.25 C-9.99720703 3.73050781 -9.30691406 3.21101563 -8.59570312 2.67578125 C-7.59506836 1.94681641 -7.59506836 1.94681641 -6.57421875 1.203125 C-5.96151123 0.75614258 -5.34880371 0.30916016 -4.7175293 -0.15136719 C-3 -1 -3 -1 0 0 Z " fill="#0E2F52" transform="translate(81,330)"/>
<path d="M0 0 C4.30579523 0.49279488 6.93806782 1.27424507 10.3125 4 C10.98925781 4.53625 11.66601562 5.0725 12.36328125 5.625 C14 7 14 7 15 8 C15.51617526 14.09086807 15.05630193 17.13243768 11 22 C7.47348257 24.35101162 6.15330626 24.40818735 2 24 C-0.9921875 22.6875 -0.9921875 22.6875 -3.875 21 C-4.84179688 20.443125 -5.80859375 19.88625 -6.8046875 19.3125 C-7.52914062 18.879375 -8.25359375 18.44625 -9 18 C-7.45614871 13.85967154 -5.48971062 10.06446947 -3.375 6.1875 C-3.05015625 5.59001953 -2.7253125 4.99253906 -2.390625 4.37695312 C-1.59620849 2.91662865 -0.79844624 1.45812509 0 0 Z " fill="#0D2E52" transform="translate(132,383)"/>
<path d="M0 0 C5.23188248 1.25952726 8.39252563 3.33878844 11.375 7.8125 C11.88154667 13.16289921 10.5118935 17.12426916 7.3125 21.375 C6.35094565 22.53565267 5.37767164 23.68717739 4.375 24.8125 C1.38534358 24.21399598 -0.62278498 23.32337951 -3.078125 21.52734375 C-4.00625 20.85541992 -4.00625 20.85541992 -4.953125 20.16992188 C-5.58734375 19.70134766 -6.2215625 19.23277344 -6.875 18.75 C-7.5246875 18.27755859 -8.174375 17.80511719 -8.84375 17.31835938 C-10.44153662 16.15526471 -12.03381803 14.98461399 -13.625 13.8125 C-10.89538734 7.7713268 -6.65910739 1.49255855 0 0 Z " fill="#0D2E52" transform="translate(381.625,331.1875)"/>
<path d="M0 0 C-1.2125738 3.72433382 -2.50859979 7.37802806 -4 11 C-3.40703125 11.25523437 -2.8140625 11.51046875 -2.203125 11.7734375 C0.21224538 13.11816498 1.51211706 14.49214367 3.25 16.625 C3.77078125 17.25664062 4.2915625 17.88828125 4.828125 18.5390625 C5.40820312 19.26222656 5.40820312 19.26222656 6 20 C1.67532468 22.04220779 1.67532468 22.04220779 -1 21.875 C-3.72284553 20.68375508 -5.75886389 18.9298672 -8 17 C-8.0825 18.11375 -8.165 19.2275 -8.25 20.375 C-9 24 -9 24 -10.875 25.4375 C-13 26 -13 26 -16 26 C-16.65177969 23.81426438 -17.29614674 21.6263177 -17.9375 19.4375 C-18.29714844 18.21933594 -18.65679687 17.00117188 -19.02734375 15.74609375 C-19.96676959 12.12798381 -20.54743991 8.70146514 -21 5 C-17.535 4.505 -17.535 4.505 -14 4 C-13.67 6.31 -13.34 8.62 -13 11 C-12.34 11 -11.68 11 -11 11 C-10.84144531 10.37351562 -10.68289063 9.74703125 -10.51953125 9.1015625 C-8.59899208 2.37437005 -8.59899208 2.37437005 -5.5 0.4375 C-3 0 -3 0 0 0 Z " fill="#113154" transform="translate(289,400)"/>
<path d="M0 0 C2.64 0 5.28 0 8 0 C11.3 5.94 14.6 11.88 18 18 C16 20 16 20 13.4375 20.1875 C11 20 11 20 10 19 C8.65252916 18.76924918 7.29622435 18.58846937 5.9375 18.4375 C4.638125 18.293125 3.33875 18.14875 2 18 C2 19.32 2 20.64 2 22 C-0.31 22 -2.62 22 -5 22 C-3.99322726 14.33668281 -2.7039577 7.25152293 0 0 Z " fill="#123355" transform="translate(252,408)"/>
<path d="M0 0 C1.32 0.66 2.64 1.32 4 2 C2.50902342 5.7952131 0.24299151 7.61042731 -3 10 C-2.67 10.66 -2.34 11.32 -2 12 C-1.071875 11.154375 -0.14375 10.30875 0.8125 9.4375 C2.39453125 7.99609375 2.39453125 7.99609375 4 7 C4.99 7.33 5.98 7.66 7 8 C6.45773019 11.79588866 4.79872437 13.47211993 2 16 C2.33 16.66 2.66 17.32 3 18 C5.31 16.02 7.62 14.04 10 12 C11.32 12.66 12.64 13.32 14 14 C12.44533803 18.08332902 9.74912156 20.08208993 6.375 22.75 C5.37210937 23.54921875 4.36921875 24.3484375 3.3359375 25.171875 C2.56507813 25.77515625 1.79421875 26.3784375 1 27 C-2.35766377 23.6781195 -5.62922011 20.30196602 -8.8125 16.8125 C-9.99779297 15.52279297 -9.99779297 15.52279297 -11.20703125 14.20703125 C-13 12 -13 12 -13 10 C-11.44996996 8.60410053 -9.83365761 7.28112981 -8.1875 6 C-7.29417969 5.29875 -6.40085937 4.5975 -5.48046875 3.875 C-3.69566972 2.52586058 -1.86157838 1.24105225 0 0 Z " fill="#0E2F53" transform="translate(350,363)"/>
<path d="M0 0 C4.81919471 0.67487737 8.91883866 2.57965909 13.3125 4.5625 C14.42334961 5.0565332 14.42334961 5.0565332 15.55664062 5.56054688 C17.37311562 6.36917123 19.18683931 7.18397116 21 8 C19.63016497 11.16115776 19.0109362 11.9927092 16 14 C15.319375 14.12375 14.63875 14.2475 13.9375 14.375 C11.84224209 14.8270594 11.84224209 14.8270594 10.8125 16.8125 C9.94236708 18.95413286 9.94236708 18.95413286 9.625 21.125 C9 23 9 23 6.9609375 24.1171875 C6.31382812 24.40851563 5.66671875 24.69984375 5 25 C3.43231119 22.09660821 1.90065494 19.1756677 0.375 16.25 C-0.07101562 15.425 -0.51703125 14.6 -0.9765625 13.75 C-1.3890625 12.95078125 -1.8015625 12.1515625 -2.2265625 11.328125 C-2.61408691 10.5949707 -3.00161133 9.86181641 -3.40087891 9.10644531 C-4 7 -4 7 -3.23583984 4.91699219 C-2.17271346 3.26790718 -1.08836067 1.632541 0 0 Z " fill="#0B2D51" transform="translate(361,351)"/>
<path d="M0 0 C3.375 1.6875 3.375 1.6875 6 4 C6.875 6.75 6.875 6.75 7 9 C4.0625 8.625 4.0625 8.625 1 8 C0.67 7.34 0.34 6.68 0 6 C-2.52733235 5.34444881 -2.52733235 5.34444881 -5 5 C-2.81139489 7.39572862 -0.66769883 8.7990886 2.1875 10.3125 C4.3125 11.60546875 4.3125 11.60546875 6 13 C6.6875 16.125 6.6875 16.125 6 19 C4.28138057 21.3526732 3.37934843 21.93481784 0.4765625 22.43359375 C-7.16122666 22.44405647 -7.16122666 22.44405647 -11.1875 20.3125 C-13 18 -13 18 -13.3125 15.25 C-13.209375 14.5075 -13.10625 13.765 -13 13 C-10.0625 13.375 -10.0625 13.375 -7 14 C-6.67 14.66 -6.34 15.32 -6 16 C-3.47266765 16.65555119 -3.47266765 16.65555119 -1 17 C-1 16.34 -1 15.68 -1 15 C-1.9075 14.731875 -2.815 14.46375 -3.75 14.1875 C-8.94871795 12.28796844 -8.94871795 12.28796844 -11 10 C-11.5 6.5 -11.5 6.5 -11 3 C-7.99087446 -0.73131567 -4.53236872 -0.54701002 0 0 Z " fill="#0F2F53" transform="translate(194,405)"/>
<path d="M0 0 C1.65 1.65 3.3 3.3 5 5 C4.33871094 5.59167969 3.67742187 6.18335938 2.99609375 6.79296875 C1.72958984 7.97826172 1.72958984 7.97826172 0.4375 9.1875 C-0.83287109 10.35345703 -0.83287109 10.35345703 -2.12890625 11.54296875 C-4.32449344 13.85943593 -4.32449344 13.85943593 -3.77734375 16.80078125 C-3.52082031 17.52652344 -3.26429687 18.25226563 -3 19 C0.90829085 18.4352699 2.89920223 16.57868029 5.75 13.9375 C6.54921875 13.20402344 7.3484375 12.47054688 8.171875 11.71484375 C8.77515625 11.14894531 9.3784375 10.58304687 10 10 C11.65 11.65 13.3 13.3 15 15 C13.37807179 16.64886059 11.75236228 18.2940024 10.125 19.9375 C9.22007813 20.85402344 8.31515625 21.77054687 7.3828125 22.71484375 C4.78672807 25.20453128 3.81188422 25.8678328 0.3125 26.4375 C-4.3452915 25.82231999 -6.84161622 23.35850176 -10 20 C-11.60127074 16.79745853 -11.40701607 14.54685436 -11 11 C-8.21243934 6.5099694 -4.22865167 3.1093027 0 0 Z " fill="#0A2C50" transform="translate(92,347)"/>
<path d="M0 0 C-0.91246713 9.80902168 -4.54356783 19.11458469 -8.0625 28.25 C-8.30766357 28.90613281 -8.55282715 29.56226563 -8.80541992 30.23828125 C-9.53515625 32.078125 -9.53515625 32.078125 -11 35 C-12.485 35.495 -12.485 35.495 -14 36 C-16.66291758 28.85610867 -17.38689448 21.52598154 -15.125 14.14453125 C-12.51292599 8.46498876 -7.09924855 0 0 0 Z " fill="#005A79" transform="translate(374,259)"/>
<path d="M0 0 C14.94946991 0.69210509 14.94946991 0.69210509 18 4 C18.49609375 5.9375 18.49609375 5.9375 18.4375 8 C18.43621094 8.680625 18.43492187 9.36125 18.43359375 10.0625 C17.8661424 12.59813848 17.10844141 13.49330404 15 15 C12.73828125 15.29296875 12.73828125 15.29296875 10.3125 15.1875 C9.10013672 15.14689453 9.10013672 15.14689453 7.86328125 15.10546875 C7.24839844 15.07066406 6.63351563 15.03585937 6 15 C6 16.98 6 18.96 6 21 C3.69 21 1.38 21 -1 21 C-0.67 14.07 -0.34 7.14 0 0 Z " fill="#0F3053" transform="translate(204,408)"/>
<path d="M0 0 C2.64 1.98 5.28 3.96 8 6 C10.75870792 7.63289003 10.75870792 7.63289003 13.3125 8.8125 C14.13363281 9.21082031 14.95476562 9.60914063 15.80078125 10.01953125 C19.27329241 11.56766678 22.12026143 12.15661715 25.88671875 12.31640625 C26.82451172 12.35830078 27.76230469 12.40019531 28.72851562 12.44335938 C29.70498047 12.48267578 30.68144531 12.52199219 31.6875 12.5625 C33.16959961 12.62727539 33.16959961 12.62727539 34.68164062 12.69335938 C37.12095546 12.79941654 39.56037113 12.90147714 42 13 C42 13.33 42 13.66 42 14 C41.16807129 14.00616333 41.16807129 14.00616333 40.31933594 14.01245117 C37.795156 14.04544181 35.27337304 14.11608378 32.75 14.1875 C31.87730469 14.19330078 31.00460938 14.19910156 30.10546875 14.20507812 C24.72314634 14.33461327 24.72314634 14.33461327 20.453125 17.42578125 C19.60261263 18.93246849 18.77375419 20.45249162 18 22 C12.06 21.34 6.12 20.68 0 20 C0 13.4 0 6.8 0 0 Z " fill="#C95226" transform="translate(157,279)"/>
<path d="M0 0 C5.61 0 11.22 0 17 0 C17 1.32 17 2.64 17 4 C13.37 4 9.74 4 6 4 C6 5.32 6 6.64 6 8 C9.3 8 12.6 8 16 8 C16 9.32 16 10.64 16 12 C12.7 12 9.4 12 6 12 C6 13.32 6 14.64 6 16 C9.96 16 13.92 16 18 16 C18 17.65 18 19.3 18 21 C12.06 21 6.12 21 0 21 C0 14.07 0 7.14 0 0 Z " fill="#06274C" transform="translate(226,410)"/>
<path d="M0 0 C0.29296875 2.30859375 0.29296875 2.30859375 0 5 C-2.01171875 6.66015625 -2.01171875 6.66015625 -4.6875 8.0625 C-5.60273438 8.57425781 -6.51796875 9.08601562 -7.4609375 9.61328125 C-8.29882812 10.07089844 -9.13671875 10.52851563 -10 11 C-16.23887222 14.88196493 -18.969623 21.18520888 -20.83984375 28.109375 C-21.31362797 30.16841563 -21.78380965 32.22828926 -22.25 34.2890625 C-23.49666537 38.79523838 -25.70148532 41.70148532 -29 45 C-31.125 44.625 -31.125 44.625 -33 44 C-33 43.01 -33 42.02 -33 41 C-32.37738281 40.43410156 -31.75476563 39.86820313 -31.11328125 39.28515625 C-28.34852199 36.29553671 -27.92350131 33.30741305 -27.1875 29.4375 C-24.95464097 19.38506819 -20.81834931 11.10590743 -12.05859375 5.21484375 C-3.22186495 0 -3.22186495 0 0 0 Z " fill="#006A85" transform="translate(244,145)"/>
<path d="M0 0 C2.5 0.25 2.5 0.25 4.5 2.25 C4.625 5.375 4.625 5.375 4.5 8.25 C3.51 8.58 2.52 8.91 1.5 9.25 C1.13940646 19.81554576 1.13940646 19.81554576 5.8125 28.875 C7.75884037 30.67357049 9.72186155 32.44447124 11.71484375 34.19140625 C14.56788915 39.07966565 13.9184408 44.02014976 13.75 49.5625 C13.73195312 50.68462891 13.71390625 51.80675781 13.6953125 52.96289062 C13.64827856 55.72613447 13.58256317 58.48762698 13.5 61.25 C12.015 61.745 12.015 61.745 10.5 62.25 C10.5220752 61.57533691 10.54415039 60.90067383 10.56689453 60.20556641 C11.54902869 46.75871903 11.54902869 46.75871903 7.27734375 34.5703125 C4.79857996 32.22351167 2.23950437 30.27386013 -0.5 28.25 C-3.1748627 24.65361448 -2.90508821 20.3817259 -3.0625 16.0625 C-2.8322347 11.27319196 -2.8322347 11.27319196 -4.5 7.25 C-4.6875 4.8125 -4.6875 4.8125 -4.5 2.25 C-2.5 0.25 -2.5 0.25 0 0 Z " fill="#003C63" transform="translate(225.5,264.75)"/>
<path d="M0 0 C18.81 0 37.62 0 57 0 C57 13.86 57 27.72 57 42 C56.67 42 56.34 42 56 42 C56 28.8 56 15.6 56 2 C38.18 2 20.36 2 2 2 C2 18.17 2 34.34 2 51 C1.34 51 0.68 51 0 51 C0 34.17 0 17.34 0 0 Z " fill="#D4CAAF" transform="translate(260,124)"/>
<path d="M0 0 C0 0.99 0 1.98 0 3 C-0.76183594 3.02578125 -1.52367187 3.0515625 -2.30859375 3.078125 C-15.07767359 3.77954761 -22.47231608 8.08065504 -31.1484375 17.27734375 C-37.11404793 23.56739966 -43.40186618 29.03293904 -52.4375 29.5625 C-56 29 -56 29 -57.72265625 26.96484375 C-58.14417969 26.31644531 -58.56570312 25.66804688 -59 25 C-58.32195312 24.99742187 -57.64390625 24.99484375 -56.9453125 24.9921875 C-47.77757303 24.6112565 -41.63255663 21.91651755 -35.3515625 15.14453125 C-34.44015128 14.09857681 -33.53133865 13.05035296 -32.625 12 C-23.24126658 1.26087511 -13.81006441 -1.01877524 0 0 Z " fill="#003C62" transform="translate(298,311)"/>
<path d="M0 0 C2.625 0.375 2.625 0.375 5 1 C5.042721 2.66611905 5.04063832 4.33382885 5 6 C4.67 6.33 4.34 6.66 4 7 C3.3729819 12.12603457 3.23155714 16.9070787 4 22 C5.71825903 24.1136536 5.71825903 24.1136536 8 25.625 C10.61439808 27.65944358 11.85092955 29.06600445 12.37890625 32.37402344 C12.72012697 38.58817764 12.43733885 44.79651667 12 51 C12.66 51 13.32 51 14 51 C14.625 53.375 14.625 53.375 15 56 C14.34 56.66 13.68 57.32 13 58 C10.375 57.625 10.375 57.625 8 57 C7.61781233 55.34385343 7.28604898 53.67542976 7 52 C7.495 51.505 7.495 51.505 8 51 C9.48603506 39.79338906 9.48603506 39.79338906 6.25 29.55859375 C4.79011384 28.4350028 3.3212524 27.32297934 1.84375 26.22265625 C-1.68630121 21.9671496 -0.95941328 16.23919386 -0.96484375 10.92578125 C-0.86549484 7.1457468 -0.86549484 7.1457468 -1.62890625 4.10546875 C-1.75136719 3.41066406 -1.87382812 2.71585937 -2 2 C-1.34 1.34 -0.68 0.68 0 0 Z " fill="#003B63" transform="translate(239,259)"/>
<path d="M0 0 C0.33 0.66 0.66 1.32 1 2 C0.67 2.99 0.34 3.98 0 5 C-0.79538464 11.3761162 0.50166869 16.01809234 3.3203125 21.73828125 C4 24 4 24 3.1171875 26.29296875 C2.56417969 27.13794922 2.56417969 27.13794922 2 28 C-1.46132304 28 -1.74508628 27.64823482 -4.13671875 25.375 C-4.71357422 24.83359375 -5.29042969 24.2921875 -5.88476562 23.734375 C-6.47966797 23.16203125 -7.07457031 22.5896875 -7.6875 22 C-8.29400391 21.42765625 -8.90050781 20.8553125 -9.52539062 20.265625 C-11.02320629 18.8503661 -12.5124329 17.42602723 -14 16 C-12.34136495 11.67495164 -9.128959 8.90581175 -5.875 5.75 C-5.31167969 5.19570313 -4.74835938 4.64140625 -4.16796875 4.0703125 C-2.78313972 2.70895515 -1.39216796 1.35385141 0 0 Z " fill="#024369" transform="translate(136,316)"/>
<path d="M0 0 C2.9375 0.75 2.9375 0.75 4.9375 2.75 C5.26089354 5.78989923 5.39420212 7.89368353 3.9375 10.625 C1.9375 11.75 1.9375 11.75 -1.75 11.4375 C-3.92697691 11.23474243 -3.92697691 11.23474243 -6.0625 11.75 C-7.8765071 13.53304473 -7.8765071 13.53304473 -9.5625 15.75 C-12.26790688 18.84812723 -14.0908373 19.99519119 -18.125 20.28125 C-22.12330698 20.33791334 -26.08065016 20.09792863 -30.0625 19.75 C-30.3925 18.43 -30.7225 17.11 -31.0625 15.75 C-29.98871094 15.75902344 -28.91492188 15.76804687 -27.80859375 15.77734375 C-18.49732281 15.93738784 -18.49732281 15.93738784 -10.6875 11.5625 C-8.27118498 8.52019664 -7.10756496 5.49481611 -6.0625 1.75 C-3.0625 -0.25 -3.0625 -0.25 0 0 Z " fill="#C46727" transform="translate(229.0625,90.25)"/>
<path d="M0 0 C-0.0625 2.1875 -0.0625 2.1875 -1 5 C-5.64223105 9.14837668 -9.81956479 10.68501086 -15.78125 12.23828125 C-18.22213478 12.88949879 -18.22213478 12.88949879 -20.1875 15.25 C-20.785625 15.8275 -21.38375 16.405 -22 17 C-28.21428571 16.78571429 -28.21428571 16.78571429 -31 14 C-31.27922749 11.06811139 -31.47143881 8.84609353 -31 6 C-28.92744557 3.54363919 -27.63630966 3.11135419 -24.5 2.5625 C-22 3 -22 3 -20.1875 5.0625 C-18.01863009 7.39840193 -18.01863009 7.39840193 -14.25 7.125 C-9.86191059 6.36078218 -7.00849889 4.1087889 -3.6640625 1.27734375 C-2 0 -2 0 0 0 Z " fill="#003A61" transform="translate(260,231)"/>
<path d="M0 0 C0.3125 2.1875 0.3125 2.1875 0 5 C-0.763125 5.7425 -1.52625 6.485 -2.3125 7.25 C-6.93432577 11.97931009 -7.82295759 17.8333849 -9 24.1875 C-10.30787863 31.05652112 -12.82521886 35.24479571 -18 40 C-18.99 39.67 -19.98 39.34 -21 39 C-21.495 37.515 -21.495 37.515 -22 36 C-20.77185032 34.56577097 -19.53986951 33.13451264 -18.28222656 31.72607422 C-16.10890189 28.80044485 -15.57461318 25.58388635 -14.875 22.0625 C-13.24242783 14.33352096 -10.11316 0 0 0 Z " fill="#006783" transform="translate(244,163)"/>
<path d="M0 0 C3.63559661 3.43361902 6.36113346 6.7973607 9 11 C12.38457255 10.39561204 14.3000178 9.06998635 17 7 C17.66 7 18.32 7 19 7 C19.66 8.65 20.32 10.3 21 12 C18.87885041 13.50571746 16.75346385 15.00468679 14.625 16.5 C14.02171875 16.92925781 13.4184375 17.35851562 12.796875 17.80078125 C8.2265625 21 8.2265625 21 6 21 C4.16592155 18.6177721 2.47622147 16.24673596 0.8125 13.75 C0.33619141 13.06808594 -0.14011719 12.38617188 -0.63085938 11.68359375 C-1.07623047 11.01972656 -1.52160156 10.35585938 -1.98046875 9.671875 C-2.39192139 9.0644043 -2.80337402 8.45693359 -3.22729492 7.83105469 C-4 6 -4 6 -3.8137207 3.89550781 C-3 2 -3 2 0 0 Z " fill="#0F3053" transform="translate(326,381)"/>
<path d="M0 0 C2 1 4 2 6 3 C4.6744419 6.62276315 3.05653045 9.63505348 0.875 12.8125 C0.06675781 13.99779297 0.06675781 13.99779297 -0.7578125 15.20703125 C-1.37269531 16.09455078 -1.37269531 16.09455078 -2 17 C0.31 18.65 2.62 20.3 5 22 C4.67 23.32 4.34 24.64 4 26 C3.34 26.33 2.68 26.66 2 27 C-2.29 24.03 -6.58 21.06 -11 18 C-9.21569985 13.53924962 -7.1275774 10.04540926 -4.375 6.1875 C-3.95476562 5.59001953 -3.53453125 4.99253906 -3.1015625 4.37695312 C-2.07220272 2.91479435 -1.0367177 1.45695101 0 0 Z " fill="#0D2E52" transform="translate(117,371)"/>
<path d="M0 0 C-0.22265625 1.91796875 -0.22265625 1.91796875 -1 4 C-2.93359375 4.80078125 -2.93359375 4.80078125 -5.4375 5.3125 C-10.72902118 6.67707566 -14.37268083 9.07156461 -18.67578125 12.37890625 C-25.98819668 17.47916239 -33.1605228 16.38711888 -41.5625 15 C-43.37631899 14.67392018 -45.18933073 14.34313868 -47 14 C-47 12.35 -47 10.7 -47 9 C-45.125 8.375 -45.125 8.375 -43 8 C-42.34 8.66 -41.68 9.32 -41 10 C-35.32006408 11.77497997 -28.50870235 11.92156413 -22.9375 9.875 C-19.66018197 7.78309488 -16.43057309 5.63318222 -13.24609375 3.40234375 C-8.7576106 0.59996905 -5.28459889 -0.2457953 0 0 Z " fill="#003A60" transform="translate(267,210)"/>
<path d="M0 0 C2.28200645 0.40750115 4.1726984 1.07954772 6.28125 2.05078125 C9.33967801 3.11859448 11.53133589 3.00272477 14.75 2.875 C19.09398538 3.12768232 20.58921758 3.60710277 23.78125 6.66015625 C30 14.49214847 30 14.49214847 30 18 C23.73253256 16.10428454 18.0190258 13.71294148 12.25 10.625 C11.52167969 10.25117188 10.79335937 9.87734375 10.04296875 9.4921875 C5.61992685 7.14821611 2.3465475 4.72863363 -1 1 C-0.67 0.67 -0.34 0.34 0 0 Z " fill="#034368" transform="translate(146,349)"/>
<path d="M0 0 C5.99146955 0.90875905 11.52737126 3.80276405 15.29296875 8.671875 C16.27481887 10.41916745 17.15122315 12.18445491 18 14 C21.04096428 20.16286677 23.70337962 22.94483536 30.20703125 25.40625 C30.79871094 25.6021875 31.39039062 25.798125 32 26 C32 26.99 32 27.98 32 29 C27.07869877 29.50217359 23.74115878 29.05115681 19.7578125 25.9609375 C16.62886487 22.47042258 14.76897512 18.26869142 12.7734375 14.05859375 C9.71693298 8.78713332 5.41209908 6.51725539 0 4 C0 2.68 0 1.36 0 0 Z " fill="#003B62" transform="translate(81,236)"/>
<path d="M0 0 C2.4375 1.625 2.4375 1.625 4 4 C4.5625 7 4.5625 7 4 10 C1.57904909 12.62846098 -0.04614692 13.81388233 -3.5625 14.5 C-6.9249123 13.8102744 -8.0486167 12.81866476 -10 10 C-10.42519574 6.53769185 -10.63902633 4.1652833 -8.9375 1.0625 C-5.8347167 -0.63902633 -3.46230815 -0.42519574 0 0 Z " fill="#004167" transform="translate(161,121)"/>
<path d="M0 0 C12.54 0 25.08 0 38 0 C38 1.32 38 2.64 38 4 C25.46 4 12.92 4 0 4 C0 2.68 0 1.36 0 0 Z " fill="#1D334E" transform="translate(270,155)"/>
<path d="M0 0 C12.21 0 24.42 0 37 0 C37 1.32 37 2.64 37 4 C24.79 4 12.58 4 0 4 C0 2.68 0 1.36 0 0 Z " fill="#142E4B" transform="translate(270,134)"/>
<path d="M0 0 C1.67542976 0.28604898 3.34385343 0.61781233 5 1 C5.6875 2.8125 5.6875 2.8125 6 5 C3.41287795 8.73695408 -0.87447674 9.62482558 -5 11 C-5 11.66 -5 12.32 -5 13 C-5.78375 13.598125 -6.5675 14.19625 -7.375 14.8125 C-10.19297597 17.16081331 -10.8399334 18.60903608 -12 22 C-12.66 22.66 -13.32 23.32 -14 24 C-16.625 23.625 -16.625 23.625 -19 23 C-19.625 20.125 -19.625 20.125 -20 17 C-18 15 -18 15 -14.875 14.875 C-9.37961462 13.63410653 -6.39133653 10.39704322 -3 6 C-2.28801068 4.35218526 -1.61137295 2.68773379 -1 1 C-0.67 0.67 -0.34 0.34 0 0 Z " fill="#00597A" transform="translate(336,321)"/>
<path d="M0 0 C1.8125 1.25 1.8125 1.25 3 3 C3.42822025 5.85480169 3.40659584 7.34492892 1.875 9.8125 C-0.81090902 11.51357571 -2.88657099 11.26497268 -6 11 C-6.66 10.67 -7.32 10.34 -8 10 C-8 9.34 -8 8.68 -8 8 C-11.96 8 -15.92 8 -20 8 C-20 7.01 -20 6.02 -20 5 C-16.37 5 -12.74 5 -9 5 C-8.34 3.35 -7.68 1.7 -7 0 C-4.26634878 -1.36682561 -2.89333621 -0.84683011 0 0 Z " fill="#CD6924" transform="translate(223,115)"/>
<path d="M0 0 C0 0.66 0 1.32 0 2 C0.99 2 1.98 2 3 2 C3 3.32 3 4.64 3 6 C14.88 6 26.76 6 39 6 C34.80390657 8.09804671 32.90841185 8.25691775 28.3203125 8.265625 C27.34649124 8.26849518 27.34649124 8.26849518 26.35299683 8.27142334 C24.9762127 8.27278235 23.59941564 8.26910568 22.22265625 8.26074219 C20.16635356 8.25021177 18.11095993 8.26055483 16.0546875 8.2734375 C-5.4091695 8.29541525 -5.4091695 8.29541525 -12 5 C-12 4.34 -12 3.68 -12 3 C-10.75336669 2.49166409 -9.50250613 1.99368855 -8.25 1.5 C-7.55390625 1.2215625 -6.8578125 0.943125 -6.140625 0.65625 C-4 0 -4 0 0 0 Z " fill="#1F3147" transform="translate(210,374)"/>
<path d="M0 0 C2.475 0.99 2.475 0.99 5 2 C5 5.46596742 4.57421137 5.85844751 2.375 8.35546875 C1.83359375 8.97744141 1.2921875 9.59941406 0.734375 10.24023438 C0.16203125 10.88283203 -0.4103125 11.52542969 -1 12.1875 C-1.85851562 13.16879883 -1.85851562 13.16879883 -2.734375 14.16992188 C-4.14967898 15.78572725 -5.57399918 17.39362706 -7 19 C-10.73905417 17.55262419 -10.73905417 17.55262419 -11.90795898 15.07714844 C-12 13 -12 13 -11.01196289 11.35253906 C-10.5039917 10.82885742 -9.99602051 10.30517578 -9.47265625 9.765625 C-8.65571289 8.90517578 -8.65571289 8.90517578 -7.82226562 8.02734375 C-7.24154297 7.44082031 -6.66082031 6.85429687 -6.0625 6.25 C-5.48564453 5.64800781 -4.90878906 5.04601562 -4.31445312 4.42578125 C-2.88741195 2.93977143 -1.44510595 1.46844834 0 0 Z " fill="#0E2E52" transform="translate(109,365)"/>
<path d="M0 0 C1.81827318 3.63654635 -0.56106412 7.61219738 -1.7421875 11.3125 C-3.66203415 16.9408703 -5.79481856 22.47800877 -8 28 C-8.33 28 -8.66 28 -9 28 C-10.94707331 20.69847508 -11.04567063 13.42361734 -7.2890625 6.76171875 C-5.21973218 3.93363397 -2.82779309 2.05657679 0 0 Z " fill="#004267" transform="translate(372,264)"/>
<path d="M0 0 C0.495 0.99 0.495 0.99 1 2 C1.66 2.33 2.32 2.66 3 3 C-14.79881657 19 -14.79881657 19 -21 19 C-21.21398437 18.29488281 -21.42796875 17.58976562 -21.6484375 16.86328125 C-23.34189096 13.27570498 -25.7921711 10.88012544 -28.625 8.1875 C-29.3984375 7.43436523 -29.3984375 7.43436523 -30.1875 6.66601562 C-31.45159154 5.43703773 -32.72488806 4.21753999 -34 3 C-33.34 2.34 -32.68 1.68 -32 1 C-31.23816406 1.7940625 -30.47632813 2.588125 -29.69140625 3.40625 C-23.50431929 10.07034482 -23.50431929 10.07034482 -15.375 13.3125 C-9.09146917 12.51842742 -4.80324702 6.60313628 -1 2 C-0.67 1.34 -0.34 0.68 0 0 Z " fill="#044367" transform="translate(316,342)"/>
<path d="M0 0 C1.875 1.125 1.875 1.125 3 3 C3.39365568 6.14924548 3.52854531 8.11909116 1.875 10.875 C-0.88090884 12.52854531 -2.85075452 12.39365568 -6 12 C-7.875 10.875 -7.875 10.875 -9 9 C-9.39365568 5.85075452 -9.52854531 3.88090884 -7.875 1.125 C-5.11909116 -0.52854531 -3.14924548 -0.39365568 0 0 Z " fill="#092C50" transform="translate(338,66)"/>
<path d="M0 0 C1.875 1.125 1.875 1.125 3 3 C3.39365568 6.14924548 3.52854531 8.11909116 1.875 10.875 C-0.88090884 12.52854531 -2.85075452 12.39365568 -6 12 C-7.875 10.875 -7.875 10.875 -9 9 C-9.39365568 5.85075452 -9.52854531 3.88090884 -7.875 1.125 C-5.11909116 -0.52854531 -3.14924548 -0.39365568 0 0 Z " fill="#092C50" transform="translate(127,66)"/>
<path d="M0 0 C2.16874252 0.50603992 3.99967627 0.99983813 6 2 C5.91253716 3.43861294 5.80434652 4.87597508 5.6875 6.3125 C5.62949219 7.11300781 5.57148438 7.91351563 5.51171875 8.73828125 C4.90385404 11.42495048 4.24482376 12.42030921 2 14 C-1.6875 13.6875 -1.6875 13.6875 -5 13 C-4.54554036 11.58208592 -4.08625056 10.16571954 -3.625 8.75 C-3.24214844 7.56664062 -3.24214844 7.56664062 -2.8515625 6.359375 C-2.04826333 4.13372042 -1.10288338 2.09068328 0 0 Z " fill="#EFF1F4" transform="translate(301,46)"/>
<path d="M0 0 C10.89 0 21.78 0 33 0 C33 0.99 33 1.98 33 3 C22.11 3 11.22 3 0 3 C0 2.01 0 1.02 0 0 Z " fill="#042445" transform="translate(270,145)"/>
<path d="M0 0 C1.32 0 2.64 0 4 0 C3.4375 1.875 3.4375 1.875 2 4 C-0.33010909 4.67784992 -2.66359824 5.34416793 -5 6 C-5.515625 6.70125 -6.03125 7.4025 -6.5625 8.125 C-8 10 -8 10 -11 10.5 C-14 10 -14 10 -15.875 8.25 C-17 6 -17 6 -17 2 C-15.68 2 -14.36 2 -13 2 C-12.67 3.32 -12.34 4.64 -12 6 C-11.01 5.67 -10.02 5.34 -9 5 C-9.33 3.68 -9.66 2.36 -10 1 C-9.36191406 1.01160156 -8.72382813 1.02320312 -8.06640625 1.03515625 C-7.24011719 1.04417969 -6.41382813 1.05320312 -5.5625 1.0625 C-4.32693359 1.07990234 -4.32693359 1.07990234 -3.06640625 1.09765625 C-1.00836062 1.23267348 -1.00836062 1.23267348 0 0 Z " fill="#C56727" transform="translate(223,81)"/>
<path d="M0 0 C1 2 1 2 0.3125 4.375 C-1.19998386 7.39996772 -2.29669131 8.94322902 -5 11 C-7.89449949 11.2906124 -10.37949935 11.38186045 -13.25 11.25 C-14.36761719 11.22292969 -14.36761719 11.22292969 -15.5078125 11.1953125 C-17.33909701 11.14835649 -19.16971649 11.07661652 -21 11 C-21.33 9.68 -21.66 8.36 -22 7 C-20.91460937 6.99742188 -19.82921875 6.99484375 -18.7109375 6.9921875 C-9.58123759 7.20992224 -9.58123759 7.20992224 -2 2.9375 C-1.34 1.968125 -0.68 0.99875 0 0 Z " fill="#BD6528" transform="translate(220,99)"/>
<path d="M0 0 C0 1.65 0 3.3 0 5 C-1.89192475 5.98669759 -3.78871978 6.9640602 -5.6875 7.9375 C-6.74324219 8.48277344 -7.79898437 9.02804688 -8.88671875 9.58984375 C-11.66234047 10.8470576 -14.00272126 11.56069569 -17 12 C-17.66 10.68 -18.32 9.36 -19 8 C-16.39939496 6.65929682 -13.79495084 5.32726646 -11.1875 4 C-10.44951172 3.6184375 -9.71152344 3.236875 -8.95117188 2.84375 C-8.23896484 2.4828125 -7.52675781 2.121875 -6.79296875 1.75 C-6.1383667 1.41484375 -5.48376465 1.0796875 -4.80932617 0.734375 C-3 0 -3 0 0 0 Z " fill="#006985" transform="translate(375,202)"/>
<path d="M0 0 C1.9375 0.8125 1.9375 0.8125 4 2 C4.33 2.99 4.66 3.98 5 5 C5.763125 4.175 6.52625 3.35 7.3125 2.5 C10 0 10 0 13 0 C12.36548223 4.69543147 12.36548223 4.69543147 10.5 6.25 C8.24434217 8.8816008 8.48101392 11.28351877 8.3125 14.6875 C8.24675781 15.86699219 8.18101562 17.04648438 8.11328125 18.26171875 C8.07589844 19.16535156 8.03851563 20.06898438 8 21 C7.67 21 7.34 21 7 21 C6.67 17.04 6.34 13.08 6 9 C5.67 12.96 5.34 16.92 5 21 C4.67 21 4.34 21 4 21 C3.97421875 20.11957031 3.9484375 19.23914063 3.921875 18.33203125 C3.86515625 17.17058594 3.8084375 16.00914062 3.75 14.8125 C3.70359375 13.66394531 3.6571875 12.51539063 3.609375 11.33203125 C2.90827154 7.49843351 1.4552079 5.93711854 -1 3 C-0.67 2.01 -0.34 1.02 0 0 Z " fill="#2F4258" transform="translate(150,227)"/>
<path d="M0 0 C1.33157895 5.44736842 1.33157895 5.44736842 -0.125 7.875 C-2.63262288 9.37957373 -4.12120803 9.4318188 -7 9 C-8.875 7.875 -8.875 7.875 -10 6 C-9.8125 2.875 -9.8125 2.875 -9 0 C-5.93109813 -1.53445094 -3.29905734 -0.54984289 0 0 Z " fill="#DE761D" transform="translate(283,337)"/>
<path d="M0 0 C9.57 0 19.14 0 29 0 C29 0.99 29 1.98 29 3 C19.43 3 9.86 3 0 3 C0 2.01 0 1.02 0 0 Z " fill="#012144" transform="translate(270,166)"/>
<path d="M0 0 C6.30267439 0.36776168 11.33251843 1.16625922 17 4 C17 5.65 17 7.3 17 9 C11.72 7.68 6.44 6.36 1 5 C0.67 3.35 0.34 1.7 0 0 Z " fill="#003B62" transform="translate(81,218)"/>
<path d="M0 0 C3.29714793 0.32971479 4.6226839 0.6226839 7 3 C7.25 5.5 7.25 5.5 7 8 C5 10 5 10 2.5625 10.3125 C0 10 0 10 -1.875 8.8125 C-3 7 -3 7 -2.8125 4.4375 C-2 2 -2 2 0 0 Z " fill="#143457" transform="translate(161,403)"/>
<path d="M0 0 C6.57692308 0.57692308 6.57692308 0.57692308 8 2 C8.1875 4.4375 8.1875 4.4375 8 7 C6 9 6 9 3 9.25 C0 9 0 9 -2 7 C-2.25 4.5 -2.25 4.5 -2 2 C-1.34 1.34 -0.68 0.68 0 0 Z " fill="#123255" transform="translate(58,313)"/>
<path d="M0 0 C2.5625 0.3125 2.5625 0.3125 4.4375 1.5 C5.5625 3.3125 5.5625 3.3125 5.3125 5.9375 C4.5625 8.3125 4.5625 8.3125 3.5625 9.3125 C0.625 9.5 0.625 9.5 -2.4375 9.3125 C-4.4375 7.3125 -4.4375 7.3125 -4.6875 4.8125 C-4.34234788 1.3609788 -3.44095645 0.44114826 0 0 Z " fill="#0E2F52" transform="translate(397.4375,312.6875)"/>
<path d="M0 0 C3.0625 0.1875 3.0625 0.1875 5.0625 2.1875 C5.3125 4.6875 5.3125 4.6875 5.0625 7.1875 C3.0625 9.1875 3.0625 9.1875 0.5625 9.4375 C-1.9375 9.1875 -1.9375 9.1875 -3.9375 7.1875 C-4.125 4.125 -4.125 4.125 -3.9375 1.1875 C-2.9375 0.1875 -2.9375 0.1875 0 0 Z " fill="#08294E" transform="translate(308.9375,397.8125)"/>
<path d="M0 0 C1.8125 1.25 1.8125 1.25 3 3 C3.1875 5.6875 3.1875 5.6875 3 8 C0.36 8 -2.28 8 -5 8 C-5.33 6.35 -5.66 4.7 -6 3 C-6.66 3 -7.32 3 -8 3 C-7.67 2.01 -7.34 1.02 -7 0 C-4.26634878 -1.36682561 -2.89333621 -0.84683011 0 0 Z " fill="#BB642A" transform="translate(223,115)"/>
<path d="M0 0 C2.72274244 0.95295985 3.97489421 1.41788511 5.5 3.875 C5.1875 7.0625 5.1875 7.0625 4.5 9.875 C0.06541027 8.4812718 -2.37378374 6.26917765 -5.5 2.875 C-3.68189192 0.48275253 -3.08240061 -0.15412003 0 0 Z " fill="#EFF2F4" transform="translate(381.5,338.125)"/>
<path d="M0 0 C0.66 0.33 1.32 0.66 2 1 C2.4140625 3.72265625 2.4140625 3.72265625 2.625 7.0625 C2.69976562 8.16722656 2.77453125 9.27195313 2.8515625 10.41015625 C2.90054688 11.26480469 2.94953125 12.11945313 3 13 C5.97 13.495 5.97 13.495 9 14 C8.67 14.99 8.34 15.98 8 17 C3.38 17 -1.24 17 -6 17 C-6.33 16.01 -6.66 15.02 -7 14 C-5.02 13.67 -3.04 13.34 -1 13 C-0.67 8.71 -0.34 4.42 0 0 Z " fill="#012143" transform="translate(155,235)"/>
<path d="M0 0 C2.42716947 0.93954947 3.71970832 1.45810276 4.9375 3.8125 C5.02951611 7.03306384 4.0385473 8.55374324 2 11 C-0.6875 11.3125 -0.6875 11.3125 -3 11 C-3.75 9.4375 -3.75 9.4375 -4 7 C-2.86915563 4.49713591 -1.47860484 2.32992278 0 0 Z " fill="#EFF2F4" transform="translate(136,390)"/>
<path d="M0 0 C2.5 0.25 2.5 0.25 4.5 2.25 C4.17028521 5.54714793 3.8773161 6.8726839 1.5 9.25 C-1.125 8.875 -1.125 8.875 -3.5 8.25 C-4.125 5.375 -4.125 5.375 -4.5 2.25 C-2.5 0.25 -2.5 0.25 0 0 Z " fill="#EEDBBA" transform="translate(320.5,335.75)"/>
<path d="M0 0 C2 2 2 2 2.125 5.125 C2.08375 6.07375 2.0425 7.0225 2 8 C1.34 8 0.68 8 0 8 C0 7.34 0 6.68 0 6 C-1.65 6.66 -3.3 7.32 -5 8 C-6.0625 6.1875 -6.0625 6.1875 -7 4 C-6.67 3.01 -6.34 2.02 -6 1 C-6.66 0.67 -7.32 0.34 -8 0 C-5.09288879 -1.4535556 -3.10402897 -0.71133997 0 0 Z " fill="#BD6529" transform="translate(232,91)"/>
<path d="M0 0 C2.5107754 1.42189175 3.97112343 2.8696796 6 5 C6 5.66 6 6.32 6 7 C5.34 7 4.68 7 4 7 C4 6.34 4 5.68 4 5 C3.01 4.67 2.02 4.34 1 4 C1 3.34 1 2.68 1 2 C-4.70298757 1.88994463 -4.70298757 1.88994463 -9.546875 4.40234375 C-9.98515625 4.95019531 -10.4234375 5.49804688 -10.875 6.0625 C-12.87766203 8.44635054 -13.6582343 8.95205787 -16.8125 9.39453125 C-19.5644263 9.3769807 -22.26127327 9.26315168 -25 9 C-25 8.67 -25 8.34 -25 8 C-24.32453125 7.98582031 -23.6490625 7.97164062 -22.953125 7.95703125 C-17.14650333 7.78512546 -17.14650333 7.78512546 -12.5625 4.5625 C-12.046875 3.716875 -11.53125 2.87125 -11 2 C-7.31031391 -0.45979073 -4.28214069 -0.8144938 0 0 Z " fill="#C05E29" transform="translate(334,233)"/>
<path d="M0 0 C5.94 0 11.88 0 18 0 C18 0.99 18 1.98 18 3 C12.06 3 6.12 3 0 3 C0 2.01 0 1.02 0 0 Z " fill="#0B2848" transform="translate(269,109)"/>
<path d="M0 0 C5.28 0 10.56 0 16 0 C16 0.99 16 1.98 16 3 C10.72 3 5.44 3 0 3 C0 2.01 0 1.02 0 0 Z " fill="#004369" transform="translate(148,253)"/>
<path d="M0 0 C1.32 0.66 2.64 1.32 4 2 C0.25 5 0.25 5 -2 5 C-2 5.66 -2 6.32 -2 7 C-4.3125 9.1875 -4.3125 9.1875 -7 11 C-7.99 10.67 -8.98 10.34 -10 10 C-6.66666667 6.66666667 -3.33333333 3.33333333 0 0 Z " fill="#024166" transform="translate(333,327)"/>
<path d="M0 0 C1.65 0 3.3 0 5 0 C5 0.66 5 1.32 5 2 C6.98 1.67 8.96 1.34 11 1 C10.67 1.99 10.34 2.98 10 4 C6.37 4 2.74 4 -1 4 C-0.67 2.68 -0.34 1.36 0 0 Z " fill="#E0E5E9" transform="translate(181,36)"/>
<path d="M0 0 C1.67542976 0.28604898 3.34385343 0.61781233 5 1 C5.33 1.99 5.66 2.98 6 4 C5.67 4.66 5.34 5.32 5 6 C3.35 6 1.7 6 0 6 C-0.38218767 4.34385343 -0.71395102 2.67542976 -1 1 C-0.67 0.67 -0.34 0.34 0 0 Z " fill="#002949" transform="translate(233,238)"/>
<path d="M0 0 C-2.83430453 3.2542015 -4.68607774 4.5206753 -9 5 C-8.625 2.5625 -8.625 2.5625 -8 0 C-5.13822943 -1.43088528 -3.06624227 -0.59991697 0 0 Z " fill="#004F71" transform="translate(304,356)"/>
<path d="M0 0 C-0.37596209 2.78211944 -0.67318459 4.5879284 -2.4375 6.8125 C-4 8 -4 8 -6 8 C-6 7.34 -6 6.68 -6 6 C-6.66 5.67 -7.32 5.34 -8 5 C-3.375 0 -3.375 0 0 0 Z " fill="#1F3650" transform="translate(163,227)"/>
<path d="M0 0 C-1.98 0.99 -1.98 0.99 -4 2 C-4 3.32 -4 4.64 -4 6 C-5.32 6 -6.64 6 -8 6 C-8 4.68 -8 3.36 -8 2 C-8.99 1.67 -9.98 1.34 -11 1 C-7.26562152 0.12132271 -3.83225427 -0.08912219 0 0 Z " fill="#203854" transform="translate(218,81)"/>
<path d="M0 0 C3.96 0 7.92 0 12 0 C11.67 1.32 11.34 2.64 11 4 C9.35 4.33 7.7 4.66 6 5 C6 4.01 6 3.02 6 2 C3.03 1.505 3.03 1.505 0 1 C0 0.67 0 0.34 0 0 Z " fill="#C3CBD4" transform="translate(177,47)"/>
<path d="M0 0 C4.875 4.625 4.875 4.625 6 8 C4.35 8.33 2.7 8.66 1 9 C0.67 6.03 0.34 3.06 0 0 Z " fill="#DDE2E7" transform="translate(154,48)"/>
<path d="M0 0 C3.65316671 1.24976756 4.78065836 1.67098753 7 5 C6 6 6 6 3.5 6.125 C1 6 1 6 0 5 C-0.04063832 3.33382885 -0.042721 1.66611905 0 0 Z " fill="#DF7825" transform="translate(313,108)"/>
<path d="M0 0 C0 3 0 3 -1.75 5.04296875 C-2.4925 5.75066406 -3.235 6.45835937 -4 7.1875 C-4.7425 7.90292969 -5.485 8.61835938 -6.25 9.35546875 C-6.8275 9.89816406 -7.405 10.44085938 -8 11 C-8.33 10.01 -8.66 9.02 -9 8 C-6.03 5.36 -3.06 2.72 0 0 Z " fill="#143255" transform="translate(92,347)"/>
<path d="M0 0 C1.65 0 3.3 0 5 0 C5 1.98 5 3.96 5 6 C3.02 6 1.04 6 -1 6 C-1.33 5.34 -1.66 4.68 -2 4 C-0.35 4 1.3 4 3 4 C3 3.01 3 2.02 3 1 C2.01 0.67 1.02 0.34 0 0 Z " fill="#2B4564" transform="translate(249,47)"/>
<path d="M0 0 C1.65 0 3.3 0 5 0 C5.33 0.99 5.66 1.98 6 3 C6.99 3.33 7.98 3.66 9 4 C7.3125 4.6875 7.3125 4.6875 5 5 C2.25 3.6875 2.25 3.6875 0 2 C0 1.34 0 0.68 0 0 Z " fill="#C0C9D2" transform="translate(189,410)"/>
<path d="M0 0 C2.475 0.495 2.475 0.495 5 1 C4.67 2.32 4.34 3.64 4 5 C2.68 5 1.36 5 0 5 C0 3.35 0 1.7 0 0 Z " fill="#202E46" transform="translate(206,349)"/>
<path d="M0 0 C1.32 0 2.64 0 4 0 C4 1.65 4 3.3 4 5 C2.35 4.67 0.7 4.34 -1 4 C-0.67 2.68 -0.34 1.36 0 0 Z " fill="#203B5A" transform="translate(218,118)"/>
<path d="M0 0 C1.65 0.33 3.3 0.66 5 1 C4.34 2.32 3.68 3.64 3 5 C1.68 4.34 0.36 3.68 -1 3 C-0.67 2.01 -0.34 1.02 0 0 Z " fill="#1A2B48" transform="translate(206,362)"/>
<path d="M0 0 C1.32 0 2.64 0 4 0 C3.67 1.65 3.34 3.3 3 5 C1.68 4.67 0.36 4.34 -1 4 C-0.67 2.68 -0.34 1.36 0 0 Z " fill="#1F2D47" transform="translate(194,362)"/>
<path d="M0 0 C2.475 0.495 2.475 0.495 5 1 C4.67 2.32 4.34 3.64 4 5 C2.68 4.67 1.36 4.34 0 4 C0 2.68 0 1.36 0 0 Z " fill="#1A2B48" transform="translate(218,362)"/>
<path d="M0 0 C1.98 0.495 1.98 0.495 4 1 C3.67 2.32 3.34 3.64 3 5 C1.68 5 0.36 5 -1 5 C-0.67 3.35 -0.34 1.7 0 0 Z " fill="#142A49" transform="translate(219,349)"/>
<path d="M0 0 C1.98 0.495 1.98 0.495 4 1 C4 2.32 4 3.64 4 5 C2.35 4.67 0.7 4.34 -1 4 C-0.67 2.68 -0.34 1.36 0 0 Z " fill="#1A2B47" transform="translate(194,349)"/>
<path d="M0 0 C0.99 0.33 1.98 0.66 3 1 C3.33 2.65 3.66 4.3 4 6 C2.68 5.67 1.36 5.34 0 5 C-0.5625 3.0625 -0.5625 3.0625 -1 1 C-0.67 0.67 -0.34 0.34 0 0 Z " fill="#E8EBEE" transform="translate(72,342)"/>
<path d="M0 0 C1.65 0.33 3.3 0.66 5 1 C4.34 2.32 3.68 3.64 3 5 C1.68 4.34 0.36 3.68 -1 3 C-0.67 2.01 -0.34 1.02 0 0 Z " fill="#203B5A" transform="translate(226,94)"/>
<path d="M0 0 C0.99 0.33 1.98 0.66 3 1 C3.33 2.65 3.66 4.3 4 6 C2.68 5.67 1.36 5.34 0 5 C-0.5625 3.0625 -0.5625 3.0625 -1 1 C-0.67 0.67 -0.34 0.34 0 0 Z " fill="#E1E5EA" transform="translate(78,337)"/>
<path d="M0 0 C3 3.625 3 3.625 3 7 C1.68 7 0.36 7 -1 7 C-0.67 4.69 -0.34 2.38 0 0 Z " fill="#CDD4DC" transform="translate(256,414)"/>
<path d="M0 0 C3.465 1.485 3.465 1.485 7 3 C7 3.66 7 4.32 7 5 C5.35 5 3.7 5 2 5 C1.67 4.01 1.34 3.02 1 2 C0.34 1.67 -0.32 1.34 -1 1 C-0.67 0.67 -0.34 0.34 0 0 Z " fill="#E2E6EA" transform="translate(186,417)"/>
<path d="M0 0 C2.475 0.495 2.475 0.495 5 1 C5 1.99 5 2.98 5 4 C3.35 4 1.7 4 0 4 C0 2.68 0 1.36 0 0 Z " fill="#E5E8EC" transform="translate(211,414)"/>
<path d="M0 0 C2.475 0.99 2.475 0.99 5 2 C5 3.32 5 4.64 5 6 C4.01 5.67 3.02 5.34 2 5 C0.8125 2.4375 0.8125 2.4375 0 0 Z " fill="#D2D8DF" transform="translate(364,358)"/>
<path d="M0 0 C0.66 0.66 1.32 1.32 2 2 C-0.25 2.6875 -0.25 2.6875 -3 3 C-5.3125 1.5625 -5.3125 1.5625 -7 0 C-3.85179059 -1.04940314 -3.00659136 -1.066855 0 0 Z " fill="#B7632C" transform="translate(225,137)"/>
<path d="M0 0 C0.66 0.33 1.32 0.66 2 1 C0.02 3.97 0.02 3.97 -2 7 C-2.66 6.67 -3.32 6.34 -4 6 C-2.84826645 3.53199953 -1.95216435 1.95216435 0 0 Z " fill="#E1E5E9" transform="translate(350,369)"/>
<path d="M0 0 C1.32 0 2.64 0 4 0 C3.34 1.32 2.68 2.64 2 4 C1.01 4 0.02 4 -1 4 C-0.67 2.68 -0.34 1.36 0 0 Z " fill="#B96329" transform="translate(223,81)"/>
</svg>
